<?xml version="1.0" encoding="utf-8"?>
<!-- Generator: Adobe Illustrator 27.2.0, SVG Export Plug-In . SVG Version: 6.00 Build 0)  -->
<svg version="1.1" id="Layer_1" xmlns="http://www.w3.org/2000/svg" xmlns:xlink="http://www.w3.org/1999/xlink" x="0px" y="0px"
	 viewBox="0 0 158.6 157.8" style="enable-background:new 0 0 158.6 157.8;" xml:space="preserve">
<style type="text/css">
	.st0{fill:#7C3F34;}
	.st1{fill:#FFFFFF;}
	.st2{opacity:0.2;fill:#010101;enable-background:new    ;}
	.st3{font-family:'Roboto-Bold','Roboto',sans-serif;font-weight:700;}
	.st4{font-size:18px;}
</style>
<g>
	<path class="st0" d="M129.6,0H0l28.6,105.5c0.1,0.4,0.1,0.8,0,1.1L0,157.8h129.6l28.8-51.8"/>
	<g>
		<g>
			<g>
				<path class="st1" d="M89.3,40.5c-0.3,2.4-1.1,6-3.9,8.5c-5.2,4.6-5.6,7-5.6,9.6c0,2.7,0.5,5.1,6.1,9.7c3,2.4,3.9,6,4.2,8.4H66.7
					c0.3-2.4,1.1-6,3.9-8.5c5.2-4.6,5.6-7,5.6-9.6c0-2.7-0.5-5.1-6.1-9.7c-3-2.4-3.9-6-4.2-8.4L89.3,40.5 M92,37.9H63.1
					c0,0-0.7,8.3,5.3,13.1c5.1,4.2,5.2,5.9,5.2,7.7s0,3.5-4.7,7.7C63.4,71.2,64,79.5,64,79.5h28.9c0,0,0.7-8.3-5.3-13.1
					c-5.1-4.2-5.2-5.9-5.2-7.7s0-3.5,4.7-7.7C92.6,46.1,92,37.9,92,37.9L92,37.9z"/>
			</g>
		</g>
		<path class="st1" d="M95.2,35.9c0,0.5-0.5,0.9-1.1,0.9H62c-0.6,0-1.1-0.4-1.1-0.9V35c0-0.5,0.5-0.9,1.1-0.9h32.1
			c0.6,0,1.1,0.4,1.1,0.9V35.9z"/>
		<path class="st1" d="M95.2,82.3c0,0.5-0.5,0.9-1.1,0.9H62c-0.6,0-1.1-0.4-1.1-0.9v-0.9c0-0.5,0.5-0.9,1.1-0.9h32.1
			c0.6,0,1.1,0.4,1.1,0.9V82.3z"/>
		<path class="st1" d="M88.6,76.1c-0.3-2.3-2-3.6-4.7-5.9c-2.3-1.9-4.7-4.1-4.9-11.5c-0.1-3.4,1-5.9,6.4-10.2
			c0.3-0.2,0.5-0.4,0.7-0.6H70c0.2,0.2,0.5,0.4,0.7,0.6c5.4,4.4,6.4,6.9,6.4,10.2c-0.2,7.4-2.6,9.6-4.9,11.5c-2.8,2.3-4,3.6-4.3,5.9
			H88.6z"/>
	</g>
	<path class="st2" d="M29,105.2c0.1,0.6-0.1,1.1-0.3,1.4l-28.4,51h129.2l29.1-51.9"/>
	<text transform="matrix(1 0 0 1 41.4398 136.2174)" class="st1 st3 st4">End of life</text>
</g>
</svg>
