<?xml version="1.0" encoding="utf-8"?>
<!-- Generator: Adobe Illustrator 27.2.0, SVG Export Plug-In . SVG Version: 6.00 Build 0)  -->
<svg version="1.1" id="Layer_1" xmlns="http://www.w3.org/2000/svg" xmlns:xlink="http://www.w3.org/1999/xlink" x="0px" y="0px"
	 viewBox="0 0 158.5 157.8" style="enable-background:new 0 0 158.5 157.8;" xml:space="preserve">
<style type="text/css">
	.st0{fill:#19315C;}
	.st1{fill:#FFFFFF;}
	.st2{opacity:0.2;fill:#010101;enable-background:new    ;}
	.st3{font-family:'Roboto-Bold','Roboto',sans-serif;font-weight:700;}
	.st4{font-size:18px;}
</style>
<path class="st0" d="M0,0l28.6,105.5c0.1,0.4,0.1,0.8,0,1.1L0,157.8h129.6l28.8-51.8L129.6,0"/>
<path class="st1" d="M54.4,69.6c0.2,0.1,0.3,0.2,0.4,0.3L55,70c0.1,0.1,0.3,0.1,0.4,0.2l0.2,0.1c0.8,0.4,1.6,0.7,2.4,0.9
	c1.6,0.4,3.1,0.7,4.8,0.7c1.7,0,3.3-0.2,4.8-0.7c0.8-0.2,1.6-0.5,2.4-0.9c0.4-0.2,0.8-0.4,1.2-0.7c0.3-0.2,0.8-0.5,1.2-0.9l0.2-0.1
	v-1h-0.3l-8.4-20.1c0.4,0.1,0.8,0.1,1.2,0.1c1.6,0.2,3.3,0.3,5.3,0.5c3,0.2,6,0.3,9.4,0.3c-0.2,1.6-0.3,3.2-0.5,4.8l-0.4,5.1
	l-0.4,5.1c-0.1,0.8-0.1,1.6-0.2,2.5l-0.1,0.9c-0.1,0.6-0.1,1.1-0.2,1.7c-0.1,1-0.1,1.8-0.1,2.6s0,1.7,0.1,2.6
	c0.1,1.3,0.3,2.5,0.5,3.7c-0.4,0-0.7,0.1-1.1,0.1c-1.3,0.2-2.5,0.5-3.6,0.9c-0.6,0.2-1.2,0.4-1.8,0.7s-1.2,0.6-1.8,0.9
	c-0.6,0.3-1.2,0.7-1.8,1.2c-0.5,0.4-1.2,0.9-1.8,1.5l-0.1,0.1V84l4,0.2l3.6,0.1l7.1,0.1l0,0h3.6c0.4,0,0.8,0,1.1,0
	c0.8,0,1.6,0,2.4,0l3.6-0.1l1.8-0.1l2.2-0.1v-1.2l-0.1-0.1c-0.7-0.7-1.3-1.2-1.8-1.5c-0.6-0.4-1.2-0.8-1.8-1.2
	c-1.2-0.7-2.4-1.2-3.6-1.6s-2.4-0.7-3.6-0.9c-0.3,0-0.6-0.1-1-0.1c0.2-1.2,0.4-2.5,0.5-3.7c0.1-0.9,0.1-1.8,0.1-2.6
	s-0.1-1.6-0.1-2.6c-0.1-0.6-0.1-1.1-0.2-1.7c0-0.3-0.1-0.6-0.1-0.9c-0.1-0.9-0.2-1.7-0.2-2.5l-0.4-5.1l-0.4-5.1
	c-0.1-1.6-0.3-3.2-0.5-4.8c3.2,0,6.2-0.1,9.1-0.3c1.9-0.1,3.7-0.3,5.3-0.5c0.4-0.1,0.9-0.1,1.3-0.2L90,67.7h-0.3v1l0.2,0.1
	c0.5,0.4,0.9,0.7,1.2,0.9c0.1,0.1,0.3,0.2,0.4,0.3l0.2,0.1c0.1,0.1,0.3,0.1,0.4,0.2l0.2,0.1c0.8,0.4,1.6,0.7,2.4,0.9
	c1.6,0.4,3.1,0.7,4.8,0.7s3.3-0.2,4.8-0.7c0.8-0.2,1.6-0.5,2.4-0.9c0.4-0.2,0.8-0.4,1.2-0.7c0.3-0.2,0.8-0.5,1.2-0.9l0.2-0.1v-1H109
	l-8.4-20.1c0.2,0,0.5,0.1,0.7,0.1c0.4,0.1,0.8,0.1,1.2,0.2c0.3,0,0.5,0.1,0.8,0.1c0.1,0,0.3,0.1,0.4,0.1c0.5,0.1,0.9,0.1,1.4,0
	c0.4-0.1,0.9-0.2,1.3-0.4s0.9-0.4,1.3-0.8l0.2-0.1v-0.7l-0.2-0.1c-0.5-0.4-1-0.6-1.4-0.8s-0.9-0.3-1.3-0.4c-0.4-0.1-0.9-0.1-1.4,0
	c-0.1,0-0.3,0.1-0.4,0.1c-0.3,0.1-0.5,0.1-0.8,0.1c-0.4,0.1-0.8,0.1-1.2,0.2c-0.4,0.1-0.8,0.1-1.2,0.2l-0.7,0.1
	c-0.9-0.1-1.8-0.2-2.5-0.3c-1.6-0.2-3.3-0.3-5.3-0.5c-2.9-0.2-5.8-0.3-9-0.3l0.3-2.4c0-0.4,0.1-0.8,0.2-1.2c0-0.2,0.1-0.4,0.1-0.6
	c0.1-0.4,0.1-0.7,0.1-1s0-0.6-0.1-1c-0.1-0.7-0.3-1.3-0.5-1.9c-0.1-0.4-0.3-0.7-0.4-1c-0.2-0.3-0.3-0.6-0.6-1l-0.1-0.2h-0.8
	l-0.1,0.2c-0.3,0.4-0.5,0.7-0.6,1c-0.2,0.3-0.3,0.6-0.4,1c-0.2,0.6-0.4,1.2-0.5,1.9c-0.1,0.3-0.1,0.7-0.1,1s0,0.6,0.1,1
	c0,0.2,0.1,0.4,0.1,0.6c0.1,0.4,0.2,0.8,0.2,1.2l0.1,0.9l0.2,1.4c-3.3,0-6.3,0.1-9.3,0.3c-1.9,0.1-3.7,0.3-5.3,0.5
	c-0.6,0.1-1.5,0.2-2.3,0.3l-0.6-0.1c-0.4-0.1-0.8-0.1-1.3-0.2c-0.4-0.1-0.8-0.1-1.3-0.2c-0.3,0-0.5-0.1-0.8-0.1
	c-0.1,0-0.3-0.1-0.4-0.1c-0.5-0.1-1-0.1-1.4,0c-0.5,0.1-0.9,0.2-1.3,0.4c-0.4,0.2-0.9,0.4-1.4,0.8L54.1,46v0.7l0.2,0.1
	c0.5,0.4,1,0.6,1.4,0.8s0.9,0.3,1.3,0.4c0.5,0.1,0.9,0.1,1.4,0c0.1,0,0.3-0.1,0.4-0.1c0.3-0.1,0.5-0.1,0.8-0.1
	c0.4-0.1,0.8-0.1,1.3-0.2c0.1,0,0.3,0,0.4-0.1l-8.3,20h-0.3v1l0.2,0.1C53.7,69.1,54.1,69.4,54.4,69.6z M99.7,48.4l8,19.2h-0.1
	c-0.3,0-0.6,0-0.8,0h-2.4c-0.5,0-1.1,0-1.6,0h-3.1h-2.4c-0.3,0-0.5,0-0.8,0c-0.5,0-1,0-1.6,0l-3.2,0.1L99.7,48.4z M63,48.3l8,19.2
	l-3.3-0.1c-0.5,0-1.1,0-1.6,0H63h-2.4c-0.3,0-0.5,0-0.8,0c-0.5,0-1.1,0-1.6,0h-2.4h-0.9L63,48.3z"/>
<path class="st2" d="M28.8,105.4c0.1,0.6-0.1,1.1-0.3,1.4l-28.4,51h129.3l29.1-51.9"/>
<text transform="matrix(1 0 0 1 35.4964 127.6264)" class="st1 st3 st4">Policy and</text>
<text transform="matrix(1 0 0 1 42.5964 147.6264)" class="st1 st3 st4">planning</text>
</svg>
