<?xml version="1.0" encoding="utf-8"?>
<!-- Generator: Adobe Illustrator 27.2.0, SVG Export Plug-In . SVG Version: 6.00 Build 0)  -->
<svg version="1.1" id="Layer_1" xmlns="http://www.w3.org/2000/svg" xmlns:xlink="http://www.w3.org/1999/xlink" x="0px" y="0px"
	 viewBox="0 0 176.5 175.6" style="enable-background:new 0 0 176.5 175.6;" xml:space="preserve">
<style type="text/css">
	.st0{fill:none;stroke:#84A03D;stroke-width:1.1062;stroke-miterlimit:10;}
	.st1{fill:#B4B4B4;}
	.st2{opacity:0.2;fill:#010101;enable-background:new    ;}
	.st3{fill:#333333;}
	.st4{font-family:'Roboto-Bold','Roboto',sans-serif;font-weight:700;}
	.st5{font-size:19.9107px;}
</style>
<path class="st0" d="M144.2,0.6H0.9l31.7,116.7c0.1,0.4,0.1,0.8,0,1.3L0.9,175.1h143.3l31.8-57.3"/>
<g>
	<g>
		<path class="st1" d="M90.9,63.8c0-0.5,0-0.9-0.1-1.3l4.3-2.7l-1.3-4l-5.1,0.4c-0.5-0.8-1-1.5-1.6-2.2l1.9-4.7l-3.4-2.5l-3.9,3.3
			c-0.8-0.4-1.7-0.6-2.6-0.8l-1.2-4.9h-4.2l-1.2,4.9c-0.9,0.2-1.7,0.5-2.6,0.8L66,46.8l-3.4,2.5l1.9,4.7c-0.6,0.7-1.1,1.4-1.6,2.2
			l-5.1-0.4l-1.3,4l4.3,2.7c0,0.4-0.1,0.9-0.1,1.3c0,0.5,0,0.9,0.1,1.3l-4.3,2.7l1.3,4l5.1-0.4c0.5,0.8,1,1.5,1.6,2.2l-1.9,4.7
			l3.4,2.5l3.9-3.3c0.8,0.4,1.7,0.6,2.6,0.8l1.2,4.9h4.2l1.2-4.9c0.9-0.2,1.7-0.5,2.6-0.8l3.9,3.3l3.4-2.5l-1.9-4.7
			c0.6-0.7,1.1-1.4,1.6-2.2l5.1,0.4l1.3-4l-4.3-2.7C90.9,64.7,90.9,64.2,90.9,63.8z M84.1,63.8c0,4.6-3.7,8.3-8.3,8.3
			s-8.3-3.7-8.3-8.3s3.7-8.3,8.3-8.3S84.1,59.2,84.1,63.8z"/>
		<path class="st1" d="M112.6,43.6c-0.1-0.3-0.2-0.6-0.3-0.9l2.4-2.5l-1.5-2.5l-3.3,1c-0.4-0.4-0.9-0.8-1.4-1.2l0.5-3.4l-2.7-1.1
			l-2.1,2.8c-0.6-0.1-1.2-0.2-1.8-0.2l-1.6-3.1L98,33.2v3.5c-0.6,0.3-1.1,0.6-1.6,1l-3.1-1.6l-1.9,2.2l2,2.8
			c-0.3,0.5-0.5,1.1-0.7,1.7l-3.4,0.6l-0.2,2.9l3.3,1.1c0,0.3,0.1,0.6,0.2,0.9c0.1,0.3,0.2,0.6,0.3,0.9l-2.4,2.5l1.5,2.5l3.3-1
			c0.4,0.4,0.9,0.8,1.4,1.2l-0.5,3.4l2.7,1.1l2.1-2.8c0.6,0.1,1.2,0.2,1.8,0.2l1.6,3.1l2.8-0.7v-3.5c0.6-0.3,1.1-0.6,1.6-1l3.1,1.6
			l1.9-2.2l-2-2.8c0.3-0.5,0.5-1.1,0.7-1.7l3.4-0.6l0.2-2.9l-3.3-1.1C112.7,44.2,112.6,43.9,112.6,43.6z M108,44.6
			c0.7,3-1.2,6.1-4.2,6.8s-6.1-1.2-6.8-4.2s1.2-6.1,4.2-6.8S107.3,41.6,108,44.6z"/>
		<path class="st1" d="M114.4,73c-0.1-0.3-0.1-0.5-0.2-0.8l2.1-2.1L115,68l-2.8,0.9c-0.4-0.4-0.8-0.7-1.2-1l0.5-2.9l-2.3-1l-1.8,2.4
			c-0.5-0.1-1-0.1-1.6-0.1l-1.4-2.6l-2.4,0.6v3c-0.5,0.2-0.9,0.5-1.4,0.8l-2.7-1.3l-1.6,1.9l1.7,2.4c-0.2,0.5-0.5,1-0.6,1.5
			l-2.9,0.5l-0.2,2.5l2.8,1c0,0.3,0.1,0.5,0.1,0.8s0.1,0.5,0.2,0.8l-2.1,2.1l1.3,2.1l2.8-0.9c0.4,0.4,0.8,0.7,1.2,1l-0.5,2.9l2.3,1
			l1.8-2.4c0.5,0.1,1,0.1,1.6,0.1l1.4,2.6l2.4-0.6v-3c0.5-0.2,0.9-0.5,1.4-0.8l2.7,1.3l1.6-1.9l-1.7-2.6c0.2-0.5,0.5-1,0.6-1.5
			l2.9-0.5l0.2-2.5l-2.8-1C114.5,73.5,114.5,73.2,114.4,73z M110.5,73.9c0.6,2.6-1,5.2-3.6,5.8s-5.2-1-5.8-3.6s1-5.2,3.6-5.8
			C107.3,69.6,109.9,71.3,110.5,73.9z"/>
	</g>
</g>
<path class="st2" d="M32.7,116.3c0.1,0.6-0.1,1.2-0.3,1.6L1,174.3h143l32.1-57.4"/>
<text transform="matrix(1 0 0 1 40.1297 151.2159)" class="st3 st4 st5">Operations</text>
</svg>
