<?xml version="1.0" encoding="utf-8"?>
<!-- Generator: Adobe Illustrator 27.2.0, SVG Export Plug-In . SVG Version: 6.00 Build 0)  -->
<svg version="1.1" id="Layer_1" xmlns="http://www.w3.org/2000/svg" xmlns:xlink="http://www.w3.org/1999/xlink" x="0px" y="0px"
	 viewBox="0 0 176.5 175.6" style="enable-background:new 0 0 176.5 175.6;" xml:space="preserve">
<style type="text/css">
	.st0{fill:none;stroke:#DC6326;stroke-width:1.1062;stroke-miterlimit:10;}
	.st1{fill:#B4B4B4;}
	.st2{opacity:0.2;fill:#010101;enable-background:new    ;}
	.st3{fill:#333333;}
	.st4{font-family:'Roboto-Bold','Roboto',sans-serif;font-weight:700;}
	.st5{font-size:19.9107px;}
</style>
<path class="st0" d="M144.2,0.6H0.9l31.7,116.7c0.1,0.4,0.1,0.8,0,1.3L0.9,175.1h143.3l31.8-57.3"/>
<path class="st1" d="M115.7,50.1c2.6-1.2,4.4-3.8,4.4-6.9c0-4.2-3.4-7.6-7.6-7.6c-4.2,0-7.6,3.4-7.6,7.6c0,3,1.8,5.7,4.4,6.9H70.6
	c2.6-1.2,4.4-3.8,4.4-6.9c0-4.2-3.4-7.6-7.6-7.6c-4.2,0-7.6,3.4-7.6,7.6c0,3,1.8,5.7,4.4,6.9H55v17.1h6.6v26.7h11.2v-2.3l17.1-8.8
	l17.1,8.8v2.3h11.2V67.2h6.6V50.1H115.7z M108.3,43.3c0-2.3,1.9-4.1,4.1-4.1c2.3,0,4.1,1.9,4.1,4.1c0,2.3-1.9,4.1-4.1,4.1
	C110.2,47.4,108.3,45.6,108.3,43.3z M100.3,52.4l-11,12.5H79.1l11-12.5H100.3z M63.2,43.3c0-2.3,1.9-4.1,4.1-4.1
	c2.3,0,4.1,1.9,4.1,4.1c0,2.3-1.9,4.1-4.1,4.1S63.2,45.6,63.2,43.3z M69.2,65H59l11-12.5h10.2L69.2,65z M72.8,86.9V74.1l12.5,6.4
	L72.8,86.9z M107,86.9l-12.5-6.4l12.5-6.4V86.9z M107,69.4l-17.1,8.8l-17.1-8.8v-2.1H107L107,69.4L107,69.4z M109.5,65H99.3l11-12.5
	h10.2L109.5,65z"/>
<path class="st2" d="M32.5,117c0.1,0.6-0.1,1.2-0.3,1.6L0.8,175h143l32.1-57.4"/>
<text transform="matrix(1 0 0 1 31.1142 151.2159)" class="st3 st4 st5">Construction</text>
</svg>
