<?xml version="1.0" encoding="utf-8"?>
<!-- Generator: Adobe Illustrator 27.2.0, SVG Export Plug-In . SVG Version: 6.00 Build 0)  -->
<svg version="1.1" id="Layer_1" xmlns="http://www.w3.org/2000/svg" xmlns:xlink="http://www.w3.org/1999/xlink" x="0px" y="0px"
	 viewBox="0 0 158.4 157.8" style="enable-background:new 0 0 158.4 157.8;" xml:space="preserve">
<style type="text/css">
	.st0{fill:#F1B71C;}
	.st1{fill:#FFFFFF;}
	.st2{opacity:0.2;fill:#010101;enable-background:new    ;}
	.st3{font-family:'Roboto-Bold','Roboto',sans-serif;font-weight:700;}
	.st4{font-size:18px;}
</style>
<path class="st0" d="M0,0l28.6,105.5c0.1,0.4,0.1,0.8,0,1.1L0,157.8h129.6l28.8-51.8L129.6,0"/>
<g>
	<g>
		<g>
			<path class="st1" d="M108.4,56.4l-2.3-2.3l0,0l-24-24l-8.6-2.3l2.3,8.6l24,24l0,0l2.3,2.3c0.8,0.8,1.9,1.2,3,1.2s2.2-0.4,3-1.2
				l0.2-0.2c0.8-0.8,1.2-1.9,1.2-3C109.6,58.2,109.2,57.2,108.4,56.4z M107.4,61.8c-1.2,1.2-3.2,1.2-4.4,0l-0.6-0.6l4.6-4.6l0.6,0.6
				c0.6,0.6,0.9,1.4,0.9,2.2s-0.3,1.6-0.9,2.2L107.4,61.8z M76.9,35.8l-0.7-2.7l2.7-2.7l2.7,0.7l0,0c-0.1,0.2-0.2,0.3-0.3,0.4
				c-0.2,0.2-0.4,0.3-0.7,0.4h-0.1c0,0-0.1,0-0.1,0.1l-0.1,0.1l0,0c-0.2,0.4-0.5,0.8-0.9,1.2c-0.4,0.4-0.8,0.7-1.3,0.9
				c-0.1,0-0.1,0.1-0.1,0.1c0,0.1,0,0.1,0.1,0.2l0,0c-0.1,0.3-0.3,0.6-0.6,0.9C77.3,35.6,77.2,35.7,76.9,35.8L76.9,35.8z M80.6,32.5
				l22.7,22.7l-2,2L78.6,34.5c0.4-0.2,0.8-0.5,1.2-0.9C80.1,33.3,80.3,32.9,80.6,32.5z M101.8,60.9l-1.7-1.7l4.9-4.9l1.7,1.7
				L101.8,60.9z M104.4,54l-0.9,0.9L80.9,32.3c0.2-0.1,0.4-0.2,0.6-0.4c0.1-0.1,0.2-0.3,0.3-0.4L104.4,54z"/>
		</g>
		<g>
			<path class="st1" d="M102.1,58.3c-0.2,0.2-0.2,0.4,0,0.6c0.2,0.2,0.4,0.2,0.6,0c0.2-0.2,0.2-0.4,0-0.6
				C102.5,58.1,102.2,58.1,102.1,58.3z"/>
		</g>
		<g>
			<path class="st1" d="M104.9,55.4c-0.2,0.2-0.2,0.4,0,0.6c0.2,0.2,0.4,0.2,0.6,0c0.2-0.2,0.2-0.4,0-0.6
				C105.3,55.3,105.1,55.3,104.9,55.4z"/>
		</g>
	</g>
	<g>
		<g>
			<path class="st1" d="M59.9,37.9v3.5v3.4v37.3v3.5V89h40.8v-3.4v-3.5V44.8v-3.4v-3.5H59.9z M98.9,43.3v3.4v33.6H61.8V46.7v-3.4
				v-3.5h37.1V43.3z M61.8,87.1v-1.5h37.1v1.5H61.8z M98.9,83.7H61.8v-1.6h37.1V83.7z"/>
		</g>
		<g>
			<path class="st1" d="M92.4,74.5h-2.3V54.9h-4.8v19.6h-2.1V60.3h-4.8v14.2h-2.1v-8.3h-4.8v8.3h-2.3v-3.2h1.2
				c0.2,0,0.3-0.1,0.3-0.3s-0.1-0.3-0.3-0.3h-1.2v-2.9h1.2c0.2,0,0.3-0.1,0.3-0.3s-0.1-0.3-0.3-0.3h-1.2v-2.9h1.2
				c0.2,0,0.3-0.1,0.3-0.3s-0.1-0.3-0.3-0.3h-1.2v-2.9h1.2c0.2,0,0.3-0.1,0.3-0.3s-0.1-0.3-0.3-0.3h-1.2v-2.9h1.2
				c0.2,0,0.3-0.1,0.3-0.3s-0.1-0.3-0.3-0.3h-1.2v-2.9h1.2c0.2,0,0.3-0.1,0.3-0.3s-0.1-0.3-0.3-0.3h-1.2v-2.4h2l-2.9-2.9l-2.9,2.9h2
				v25.3h25v2l2.9-2.9l-2.9-2.9L92.4,74.5z"/>
		</g>
	</g>
</g>
<path class="st2" d="M28.7,105.4c0.1,0.6-0.1,1.1-0.3,1.4L0,157.8h129.2l29.1-51.9"/>
<text transform="matrix(1 0 0 1 40.7067 127.4478)" class="st1 st3 st4">  Project</text>
<text transform="matrix(1 0 0 1 21.7067 147.4478)" class="st1 st3 st4">development</text>
</svg>
