<?xml version="1.0" encoding="utf-8"?>
<!-- Generator: Adobe Illustrator 27.2.0, SVG Export Plug-In . SVG Version: 6.00 Build 0)  -->
<svg version="1.1" id="Layer_1" xmlns="http://www.w3.org/2000/svg" xmlns:xlink="http://www.w3.org/1999/xlink" x="0px" y="0px"
	 viewBox="0 0 158.5 157.8" style="enable-background:new 0 0 158.5 157.8;" xml:space="preserve">
<style type="text/css">
	.st0{opacity:0.2;fill:#010101;enable-background:new    ;}
	.st1{fill:#DA5B45;}
	.st2{fill:#FFFFFF;}
	.st3{font-family:'Roboto-Bold','Roboto',sans-serif;font-weight:700;}
	.st4{font-size:18px;}
</style>
<path class="st0" d="M28.8,105.2c0.1,0.6-0.1,1.1-0.3,1.4l-28.4,51h129.3l29.1-51.9"/>
<path class="st1" d="M129.6,0H0l28.6,105.5c0.1,0.4,0.1,0.8,0,1.1L0,157.8h129.6l28.8-51.8"/>
<g>
	<path class="st2" d="M89,81.8c0.1,0.1,0.2,0.1,0.2,0.2c0-0.1,0.1-0.1,0.1-0.3l2.5-11.1L81,73.7L89,81.8z"/>
	<path class="st2" d="M72.9,77.6c-0.9,2.2-3,3.8-5.5,3.8c-3.3,0-5.9-2.6-5.9-5.9c0-2.2,1.2-4.1,3-5.2c0.1,0,0.1-0.1,0.2-0.1
		c0.1,0,0.2-0.1,0.2-0.1c0.1,0,0.1-0.1,0.2-0.1c0.1-0.1,0.3-0.1,0.4-0.1c0.1,0,0.1,0,0.2-0.1c0.1,0,0.2-0.1,0.4-0.1h0.1
		c0.2,0,0.3-0.1,0.5-0.1h0.1c0.2,0,0.4,0,0.5,0c1.3,0,2.5,0.4,3.6,1.2l0,0l3.5-1c-1.7-2.1-4.3-3.4-7-3.4c-0.2,0-0.4,0-0.5,0
		s-0.1,0-0.2,0c-0.1,0-0.3,0-0.4,0c-0.1,0-0.1,0-0.2,0c-0.1,0-0.3,0-0.4,0.1h-0.1c-0.2,0-0.4,0.1-0.5,0.1l0,0
		c-0.2,0-0.3,0.1-0.5,0.1h-0.1c-0.2,0.1-0.3,0.1-0.5,0.2l0,0c-3.3,1.4-5.7,4.6-5.7,8.4c0,5,4.1,9.1,9.1,9.1c4.6,0,8.4-3.5,9-7.9
		L72.9,77.6L72.9,77.6z"/>
	<path class="st2" d="M120.2,45.1h-12.1l-6.2,9.1l0,0L93.8,66L78,70.5L76.1,71l-4.7,1.3l-2.2,0.6l-2.3,0.7c-0.1,0-0.2,0.1-0.3,0.1
		c0,0-0.1,0-0.1,0.1l0,0l0,0c-0.8,0.4-1.2,1.4-0.9,2.3c0.2,0.9,1,1.4,1.9,1.4c0.2,0,0.4,0,0.5-0.1l2.4-0.7l2.2-0.6l4.7-1.3l1.1-0.3
		l9,9c0.8,0.8,1.5,0.9,2,0.9l0,0c0.9,0,2-0.6,2.3-2.2l2.8-12.3l2-0.6L110.4,49h10c1.1,0,2-0.9,2-2C122.2,46,121.3,45.1,120.2,45.1z
		 M89.3,81.7c0,0.1-0.1,0.2-0.1,0.3c-0.1,0-0.1-0.1-0.2-0.2l-8-8.1l10.8-3.1L89.3,81.7z"/>
	<path class="st2" d="M67.4,64.8c3.5,0,6.7,1.7,8.7,4.5l1.6-0.4l15.2-4.3l9.4-13.5H52l10.3,15.1C63.8,65.3,65.5,64.8,67.4,64.8z"/>
	<polygon class="st2" points="93.8,48.8 83.4,38.3 79.7,42 86.5,48.8 	"/>
	<polygon class="st2" points="72.9,36.6 60.7,48.8 85.1,48.8 	"/>
</g>
<path class="st0" d="M28.7,105.2c0.1,0.6-0.1,1.1-0.3,1.4L0,157.6h129.2l29.1-51.9"/>
<text transform="matrix(1 0 0 1 44.1257 126.8214)" class="st2 st3 st4">Material</text>
<text transform="matrix(1 0 0 1 40.6257 146.8214)" class="st2 st3 st4">selection</text>
</svg>
