<?xml version="1.0" encoding="utf-8"?>
<!-- Generator: Adobe Illustrator 27.2.0, SVG Export Plug-In . SVG Version: 6.00 Build 0)  -->
<svg version="1.1" id="Layer_1" xmlns="http://www.w3.org/2000/svg" xmlns:xlink="http://www.w3.org/1999/xlink" x="0px" y="0px"
	 viewBox="0 0 176.5 175.6" style="enable-background:new 0 0 176.5 175.6;" xml:space="preserve">
<style type="text/css">
	.st0{fill:none;stroke:#A42D23;stroke-width:1.1062;stroke-miterlimit:10;}
	.st1{fill:#B4B4B4;}
	.st2{opacity:0.2;fill:#010101;enable-background:new    ;}
	.st3{fill:#333333;}
	.st4{font-family:'Roboto-Bold','Roboto',sans-serif;font-weight:700;}
	.st5{font-size:19.9107px;}
</style>
<path class="st0" d="M144.2,0.6H0.9l31.7,116.7c0.1,0.4,0.1,0.8,0,1.3L0.9,175.1h143.3l31.8-57.3"/>
<g>
	<g>
		<path class="st1" d="M92.6,74.1c-2.7-2.7-5.5-5.5-7.9-7.9l-6.3,6.3c-3.1-0.6-6.4,0.3-8.8,2.7c-2.5,2.5-3.4,6.1-2.6,9.4l5.7-5.7
			c0.7-0.7,1.8-0.7,2.5,0l4.7,4.7c0.7,0.7,0.7,1.8,0,2.5l-5.7,5.7c3.2,0.8,6.8-0.1,9.4-2.6c2.4-2.4,3.3-5.7,2.7-8.8L92.6,74.1z"/>
		<path class="st1" d="M116.9,49.2l-5.7,5.7c-0.7,0.7-1.8,0.7-2.5,0l-4.7-4.7c-0.7-0.7-0.7-1.8,0-2.5l5.7-5.7
			c-3.2-0.8-6.8,0.1-9.4,2.6c-2.4,2.4-3.3,5.7-2.7,8.8l-5.7,5.7c2.4,2.4,5.2,5.2,7.9,7.9l5.7-5.7c3.1,0.6,6.4-0.3,8.8-2.7
			C116.8,56,117.7,52.4,116.9,49.2z"/>
	</g>
	<polygon class="st1" points="94.7,40.9 79.9,37.2 59.8,57.3 69.1,66.5 77.4,58.2 106,86.8 112.4,80.3 83.8,51.8 	"/>
</g>
<path class="st2" d="M32.6,116.3c0.1,0.6-0.1,1.2-0.3,1.6L0.9,174.3h143l32.1-57.4"/>
<text transform="matrix(1 0 0 1 33.5885 151.2159)" class="st3 st4 st5">Maintenance</text>
</svg>
