<?xml version="1.0" encoding="utf-8"?>
<!-- Generator: Adobe Illustrator 27.2.0, SVG Export Plug-In . SVG Version: 6.00 Build 0)  -->
<svg version="1.1" id="Layer_1" xmlns="http://www.w3.org/2000/svg" xmlns:xlink="http://www.w3.org/1999/xlink" x="0px" y="0px"
	 viewBox="0 0 176.5 175.6" style="enable-background:new 0 0 176.5 175.6;" xml:space="preserve">
<style type="text/css">
	.st0{fill:none;stroke:#7D3F34;stroke-width:1.1062;stroke-miterlimit:10;}
	.st1{fill:#B4B4B4;}
	.st2{opacity:0.2;fill:#010101;enable-background:new    ;}
	.st3{fill:#333333;}
	.st4{font-family:'Roboto-Bold','Roboto',sans-serif;font-weight:700;}
	.st5{font-size:19.9107px;}
</style>
<path class="st0" d="M144.2,0.6H0.9l31.7,116.7c0.1,0.4,0.1,0.8,0,1.3L0.9,175.1h143.3l31.8-57.3"/>
<g>
	<g>
		<g>
			<path class="st1" d="M99.6,45.4c-0.3,2.7-1.2,6.7-4.3,9.4c-5.7,5.1-6.2,7.7-6.2,10.7s0.5,5.6,6.8,10.7c3.3,2.7,4.3,6.6,4.6,9.3
				H74.6c0.3-2.7,1.2-6.7,4.3-9.4c5.7-5.1,6.2-7.7,6.2-10.7s-0.5-5.6-6.8-10.7C75,52,74,48.1,73.7,45.4H99.6 M102.7,42.5H70.8
				c0,0-0.7,9.1,5.8,14.5c5.7,4.6,5.7,6.5,5.7,8.5s0,3.9-5.2,8.5c-6,5.3-5.4,14.5-5.4,14.5h31.9c0,0,0.7-9.1-5.8-14.5
				c-5.7-4.6-5.7-6.5-5.7-8.5s0-3.9,5.2-8.5C103.3,51.6,102.7,42.5,102.7,42.5L102.7,42.5z"/>
		</g>
	</g>
	<path class="st1" d="M106.2,40.3c0,0.6-0.5,1-1.2,1H69.5c-0.7,0-1.2-0.4-1.2-1v-1c0-0.6,0.5-1,1.2-1H105c0.7,0,1.2,0.4,1.2,1V40.3z
		"/>
	<path class="st1" d="M106.2,91.6c0,0.6-0.5,1-1.2,1H69.5c-0.7,0-1.2-0.4-1.2-1v-1c0-0.6,0.5-1,1.2-1H105c0.7,0,1.2,0.4,1.2,1V91.6z
		"/>
	<path class="st1" d="M98.9,84.8c-0.4-2.5-2.2-3.9-5.2-6.5c-2.5-2.1-5.2-4.6-5.4-12.8c-0.1-3.7,1.1-6.5,7-11.3
		c0.3-0.2,0.5-0.5,0.8-0.7H78.3c0.2,0.2,0.5,0.5,0.8,0.7c5.9,4.8,7.1,7.6,7,11.3c-0.2,8.2-2.9,10.6-5.4,12.8c-3,2.6-4.4,4-4.8,6.5
		H98.9z"/>
</g>
<path class="st2" d="M33,117c0.1,0.6-0.1,1.2-0.3,1.6L1.3,175h143l32.1-57.4"/>
<text transform="matrix(1 0 0 1 44.0189 151.2159)" class="st3 st4 st5">End of Life</text>
</svg>
