<?xml version="1.0" encoding="utf-8"?>
<!-- Generator: Adobe Illustrator 27.2.0, SVG Export Plug-In . SVG Version: 6.00 Build 0)  -->
<svg version="1.1" id="Layer_1" xmlns="http://www.w3.org/2000/svg" xmlns:xlink="http://www.w3.org/1999/xlink" x="0px" y="0px"
	 viewBox="0 0 176.4 175.6" style="enable-background:new 0 0 176.4 175.6;" xml:space="preserve">
<style type="text/css">
	.st0{fill:#B4B4B4;}
	.st1{opacity:0.2;fill:#010101;enable-background:new    ;}
	.st2{fill:#333333;}
	.st3{font-family:'Roboto-Bold','Roboto',sans-serif;font-weight:700;}
	.st4{font-size:19.9107px;}
	.st5{fill:none;stroke:#F1B71C;stroke-miterlimit:10;}
</style>
<g>
	<g>
		<g>
			<path class="st0" d="M120.8,62.8l-2.5-2.5l0,0L91.8,33.8l-9.5-2.6l2.6,9.5l26.5,26.5l0,0l2.5,2.5c0.9,0.9,2.1,1.4,3.3,1.4
				c1.2,0,2.4-0.5,3.3-1.4l0.3-0.3c0.9-0.9,1.4-2.1,1.4-3.3C122.2,64.9,121.7,63.7,120.8,62.8z M119.7,68.8c-1.3,1.3-3.5,1.3-4.9,0
				l-0.7-0.7l5.1-5.1l0.7,0.7c0.7,0.7,1,1.5,1,2.4s-0.4,1.8-1,2.4L119.7,68.8z M86,40l-0.8-3l3-3l3,0.8l0,0
				c-0.1,0.2-0.2,0.3-0.3,0.5c-0.2,0.2-0.5,0.4-0.7,0.4h-0.1c-0.1,0-0.1,0-0.1,0.1l-0.1,0.1l0,0c-0.2,0.5-0.6,0.9-1,1.3
				c-0.4,0.4-0.9,0.8-1.4,1c-0.1,0-0.1,0.1-0.1,0.1c0,0.1,0,0.1,0.1,0.2l0,0c-0.1,0.4-0.4,0.7-0.7,1c-0.2,0.2-0.4,0.3-0.5,0.4L86,40
				z M90,36.4l25.1,25.1l-2.2,2.2L87.8,38.6c0.5-0.2,0.9-0.6,1.3-1C89.5,37.3,89.8,36.8,90,36.4z M113.5,67.8l-1.9-1.9l5.4-5.4
				l1.9,1.9L113.5,67.8z M116.4,60.2l-1,1l-25-25c0.3-0.1,0.5-0.3,0.7-0.5c0.1-0.1,0.2-0.3,0.3-0.5L116.4,60.2z"/>
		</g>
		<g>
			<path class="st0" d="M113.8,64.9c-0.2,0.2-0.2,0.5,0,0.6c0.2,0.2,0.5,0.2,0.6,0c0.2-0.2,0.2-0.5,0-0.6
				C114.3,64.8,114,64.8,113.8,64.9z"/>
		</g>
		<g>
			<path class="st0" d="M117,61.8c-0.2,0.2-0.2,0.5,0,0.6c0.2,0.2,0.5,0.2,0.6,0c0.2-0.2,0.2-0.5,0-0.6
				C117.4,61.6,117.2,61.6,117,61.8z"/>
		</g>
	</g>
	<g>
		<g>
			<path class="st0" d="M67.2,42.4v3.8v3.7v41.3V95v3.7h45.1V95v-3.8V49.9v-3.7v-3.8H67.2z M110.3,48.3V52v37.2h-41V52v-3.7v-3.8h41
				V48.3z M69.2,96.8v-1.7h41v1.7H69.2z M110.3,93.1h-41v-1.8h41V93.1z"/>
		</g>
		<g>
			<path class="st0" d="M103.1,82.8h-2.5V61.1h-5.3v21.7H93V67h-5.3v15.8h-2.3v-9.2h-5.3v9.2h-2.6v-3.4h1.3c0.2,0,0.4-0.2,0.4-0.4
				s-0.2-0.4-0.4-0.4h-1.3v-3.2h1.3c0.2,0,0.4-0.2,0.4-0.4s-0.2-0.4-0.4-0.4h-1.3v-3.2h1.3c0.2,0,0.4-0.2,0.4-0.4s-0.2-0.4-0.4-0.4
				h-1.3v-3.2h1.3c0.2,0,0.4-0.2,0.4-0.4s-0.2-0.4-0.4-0.4h-1.3v-2.7h1.3c0.2,0,0.4-0.2,0.4-0.4s-0.2-0.4-0.4-0.4h-1.3v-3.2h1.3
				c0.2,0,0.4-0.2,0.4-0.4s-0.2-0.4-0.4-0.4h-1.3v-2.6h2.3l-3.2-3.2l-3.2,3.2h2.3v28h27.7v2.3l3.2-3.2l-3.2-3.2L103.1,82.8z"/>
		</g>
	</g>
</g>
<path class="st1" d="M32.6,117.1c0.1,0.6-0.1,1.2-0.3,1.6L0.9,175.1h143l32.1-57.4"/>
<text transform="matrix(1 0 0 1 45.8889 141.4407)" class="st2 st3 st4">  Project</text>
<text transform="matrix(1 0 0 1 23.9889 163.5407)" class="st2 st3 st4">Development</text>
<path class="st5" d="M146.1,0.5H2.7H0.9l31.7,116.7c0.1,0.4,0.1,0.8,0,1.3L0.9,175.1h143.3l31.8-57.3"/>
</svg>
