<?xml version="1.0" encoding="utf-8"?>
<!-- Generator: Adobe Illustrator 27.2.0, SVG Export Plug-In . SVG Version: 6.00 Build 0)  -->
<svg version="1.1" id="Layer_1" xmlns="http://www.w3.org/2000/svg" xmlns:xlink="http://www.w3.org/1999/xlink" x="0px" y="0px"
	 viewBox="0 0 158.5 157.8" style="enable-background:new 0 0 158.5 157.8;" xml:space="preserve">
<style type="text/css">
	.st0{fill:#A62D23;}
	.st1{fill:#FFFFFF;}
	.st2{opacity:0.2;fill:#010101;enable-background:new    ;}
	.st3{font-family:'Roboto-Bold','Roboto',sans-serif;font-weight:700;}
	.st4{font-size:18px;}
</style>
<g>
	<path class="st0" d="M129.6,0H0.1l28.6,105.5c0.1,0.4,0.1,0.8,0,1.1L0.1,157.8h129.6l28.8-51.8"/>
	<g>
		<g>
			<path class="st1" d="M82.9,66.5c-2.4-2.4-4.9-4.9-7.1-7.1l-5.7,5.7c-2.8-0.5-5.8,0.3-8,2.5c-2.3,2.3-3.1,5.5-2.4,8.5l5.1-5.1
				c0.6-0.6,1.7-0.6,2.3,0l4.2,4.2c0.6,0.6,0.6,1.7,0,2.3l-5.1,5.1c2.9,0.7,6.2-0.1,8.5-2.4c2.2-2.2,3-5.2,2.5-8L82.9,66.5z"/>
			<path class="st1" d="M104.9,43.9L99.8,49c-0.6,0.6-1.7,0.6-2.3,0l-4.2-4.2c-0.6-0.6-0.6-1.7,0-2.3l5.1-5.1
				c-2.9-0.7-6.2,0.1-8.5,2.4c-2.2,2.2-3,5.2-2.5,8L82.2,53c2.2,2.2,4.7,4.7,7.1,7.1l5.2-5.2c2.8,0.5,5.8-0.3,8-2.5
				C104.8,50.1,105.6,46.9,104.9,43.9z"/>
		</g>
		<polygon class="st1" points="84.9,36.4 71.5,33.1 53.3,51.3 61.7,59.6 69.2,52.1 95.1,77.9 100.9,72.1 75,46.3 		"/>
	</g>
	<path class="st2" d="M28.7,104.6c0.1,0.6-0.1,1.1-0.3,1.4L0,157h129.2l29.1-51.9"/>
	<text transform="matrix(1 0 0 1 29.5737 136.2174)" class="st1 st3 st4">Maintenance</text>
</g>
</svg>
