<?xml version="1.0" encoding="utf-8"?>
<!-- Generator: Adobe Illustrator 27.2.0, SVG Export Plug-In . SVG Version: 6.00 Build 0)  -->
<svg version="1.1" id="Layer_1" xmlns="http://www.w3.org/2000/svg" xmlns:xlink="http://www.w3.org/1999/xlink" x="0px" y="0px"
	 viewBox="0 0 176.4 175.4" style="enable-background:new 0 0 176.4 175.4;" xml:space="preserve">
<style type="text/css">
	.st0{fill:none;stroke:#1A315C;stroke-miterlimit:10;}
	.st1{fill:#B4B4B4;}
	.st2{opacity:0.2;fill:#010101;enable-background:new    ;}
	.st3{fill:#333333;}
	.st4{font-family:'Roboto-Bold','Roboto',sans-serif;font-weight:700;}
	.st5{font-size:19.9107px;}
</style>
<path class="st0" d="M0.9,0.3L32.6,117c0.1,0.4,0.1,0.8,0,1.3L0.9,174.9h143.3l31.8-57.3"/>
<path class="st1" d="M61.1,77.3c0.2,0.1,0.3,0.2,0.5,0.3l0.2,0.1c0.1,0.1,0.3,0.2,0.4,0.2l0.2,0.1c0.9,0.4,1.8,0.8,2.7,1
	c1.7,0.5,3.5,0.7,5.4,0.7c1.9,0,3.7-0.2,5.4-0.7c0.9-0.3,1.8-0.6,2.7-1c0.4-0.2,0.9-0.4,1.3-0.7c0.4-0.2,0.9-0.5,1.4-1l0.2-0.1v-1.1
	h-0.3l-9.3-22.3c0.4,0.1,0.9,0.1,1.3,0.2c1.8,0.2,3.7,0.4,5.9,0.5c3.3,0.2,6.7,0.4,10.4,0.4c-0.2,1.8-0.4,3.6-0.5,5.3l-0.5,5.6
	l-0.4,5.6c-0.1,0.9-0.1,1.8-0.2,2.8l-0.1,1c-0.1,0.6-0.1,1.2-0.2,1.8c-0.1,1.1-0.2,2-0.2,2.9s0,1.9,0.1,2.9c0.1,1.4,0.3,2.8,0.6,4.1
	c-0.4,0-0.8,0.1-1.2,0.2c-1.4,0.2-2.8,0.5-4,1c-0.7,0.2-1.4,0.5-2,0.8c-0.7,0.3-1.4,0.6-2,1c-0.7,0.4-1.3,0.8-2,1.3
	c-0.6,0.4-1.3,0.9-2,1.7L74.8,92v1.4l4.4,0.2l3.9,0.1l7.9,0.1l0,0h4c0.4,0,0.8,0,1.3,0c0.9,0,1.8,0,2.7,0l4-0.1l2-0.1l2.4-0.1v-1.4
	l-0.1-0.1c-0.7-0.7-1.5-1.3-2-1.7c-0.7-0.5-1.3-0.9-2-1.3c-1.3-0.7-2.7-1.3-4-1.8c-1.3-0.4-2.6-0.8-4-1c-0.4-0.1-0.7-0.1-1.1-0.1
	c0.2-1.3,0.4-2.7,0.6-4.1c0.1-1,0.1-1.9,0.1-2.9c0-0.9-0.1-1.8-0.2-2.9c-0.1-0.6-0.1-1.2-0.2-1.8c0-0.3-0.1-0.7-0.1-1
	c-0.1-1-0.2-1.9-0.3-2.8L93.7,65l-0.5-5.6c-0.2-1.7-0.3-3.5-0.5-5.3c3.6,0,6.9-0.2,10.1-0.4c2.2-0.1,4.1-0.3,5.9-0.5
	c0.5-0.1,1-0.1,1.5-0.2l-9.3,22.3h-0.3v1.1l0.2,0.1c0.5,0.4,1,0.7,1.4,1c0.2,0.1,0.3,0.2,0.5,0.3l0.2,0.1c0.1,0.1,0.3,0.2,0.4,0.2
	l0.2,0.1c0.9,0.4,1.8,0.8,2.7,1c1.7,0.5,3.5,0.7,5.4,0.7s3.7-0.2,5.4-0.7c0.9-0.3,1.8-0.6,2.7-1c0.4-0.2,0.9-0.4,1.3-0.7
	c0.4-0.2,0.9-0.5,1.4-1l0.2-0.1v-1.1h-0.3L113,53c0.3,0,0.5,0.1,0.8,0.1c0.5,0.1,0.9,0.1,1.4,0.2c0.3,0,0.6,0.1,0.9,0.2
	c0.2,0,0.3,0.1,0.5,0.1c0.5,0.1,1,0.1,1.5,0s1-0.2,1.5-0.4c0.4-0.2,0.9-0.4,1.5-0.9l0.2-0.1v-0.7l-0.2-0.1c-0.5-0.5-1.1-0.7-1.5-0.9
	c-0.5-0.2-1-0.3-1.5-0.4c-0.5-0.1-1-0.1-1.5,0c-0.1,0-0.3,0.1-0.4,0.1c-0.3,0.1-0.6,0.1-0.9,0.2c-0.5,0.1-0.9,0.1-1.4,0.2
	c-0.5,0.1-0.9,0.1-1.4,0.2l-0.8,0.1c-1-0.1-2-0.3-2.8-0.4c-1.8-0.2-3.7-0.4-5.9-0.5c-3.2-0.2-6.5-0.3-10-0.4l0.3-2.6
	c0-0.4,0.1-0.9,0.2-1.3c0-0.2,0.1-0.4,0.1-0.7c0.1-0.4,0.1-0.8,0.1-1.1c0-0.4,0-0.7-0.1-1.1c-0.1-0.8-0.3-1.5-0.5-2.1
	c-0.1-0.4-0.3-0.7-0.5-1.1c-0.2-0.3-0.4-0.7-0.7-1.1l-0.1-0.2H91l-0.1,0.2c-0.3,0.4-0.5,0.8-0.7,1.1s-0.3,0.7-0.5,1.1
	c-0.2,0.7-0.4,1.4-0.5,2.1c-0.1,0.4-0.1,0.7-0.1,1.1c0,0.3,0,0.7,0.1,1.1c0,0.2,0.1,0.4,0.1,0.7c0.1,0.5,0.2,0.9,0.2,1.4l0.1,1
	l0.2,1.6c-3.6,0-7,0.2-10.2,0.4c-2.1,0.1-4.1,0.3-5.9,0.5c-0.7,0.1-1.6,0.2-2.6,0.3l-0.6-0.1c-0.5-0.1-0.9-0.2-1.4-0.2
	c-0.5-0.1-0.9-0.1-1.4-0.2c-0.3,0-0.6-0.1-0.9-0.2c-0.1,0-0.3-0.1-0.4-0.1c-0.5-0.1-1.1-0.1-1.5,0c-0.5,0.1-1,0.2-1.5,0.4
	c-0.4,0.2-0.9,0.4-1.5,0.9l-0.2,0.1v0.7l0.2,0.1c0.6,0.5,1.1,0.7,1.5,0.9c0.5,0.2,1,0.3,1.5,0.4c0.5,0.1,1,0.1,1.5,0
	c0.2,0,0.3-0.1,0.5-0.1c0.3-0.1,0.6-0.1,0.9-0.2c0.5-0.1,0.9-0.1,1.4-0.2c0.2,0,0.3,0,0.5-0.1l-9.2,22.2h-0.3v1.1l0.2,0.1
	C60.2,76.8,60.7,77.1,61.1,77.3z M111.1,53.9l8.8,21.2h-0.1c-0.3,0-0.6,0-0.9,0l-2.6-0.1c-0.6,0-1.2,0-1.8,0h-3.4h-2.6
	c-0.3,0-0.6,0-0.9,0c-0.6,0-1.2,0-1.7,0l-3.6,0.1L111.1,53.9z M70.5,53.8L79.3,75l-3.6-0.1c-0.6,0-1.2,0-1.8,0h-3.4h-2.6
	c-0.3,0-0.6,0-0.9,0c-0.6,0-1.2,0-1.7,0L62.7,75h-0.9L70.5,53.8z"/>
<path class="st2" d="M32.7,117c0.1,0.6-0.1,1.2-0.3,1.6L1,175h143l32.1-57.4"/>
<text transform="matrix(1 0 0 1 40.081 141.5409)" class="st3 st4 st5">Policy and</text>
<text transform="matrix(1 0 0 1 47.181 163.6409)" class="st3 st4 st5">Planning</text>
<line class="st0" x1="143.7" y1="0.5" x2="0.4" y2="0.5"/>
</svg>
