<?xml version="1.0" encoding="utf-8"?>
<!-- Generator: Adobe Illustrator 27.2.0, SVG Export Plug-In . SVG Version: 6.00 Build 0)  -->
<svg version="1.1" id="Layer_1" xmlns="http://www.w3.org/2000/svg" xmlns:xlink="http://www.w3.org/1999/xlink" x="0px" y="0px"
	 viewBox="0 0 158.4 157.7" style="enable-background:new 0 0 158.4 157.7;" xml:space="preserve">
<style type="text/css">
	.st0{fill:#84A03D;}
	.st1{fill:#FFFFFF;}
	.st2{opacity:0.2;fill:#010101;enable-background:new    ;}
	.st3{font-family:'Roboto-Bold','Roboto',sans-serif;font-weight:700;}
	.st4{font-size:18px;}
</style>
<g>
	<path class="st0" d="M129.6,0H0l28.6,105.4c0.1,0.4,0.1,0.8,0,1.1L0,157.7h129.6l28.8-51.8"/>
	<g>
		<g>
			<path class="st1" d="M81.4,57.1c0-0.4,0-0.8-0.1-1.2l3.9-2.4L84,49.9l-4.6,0.3c-0.4-0.7-0.9-1.4-1.4-2l1.7-4.3l-3.1-2.3l-3.5,2.9
				c-0.7-0.3-1.5-0.6-2.3-0.8l-1.1-4.4h-3.8l-1.1,4.4c-0.8,0.2-1.6,0.4-2.3,0.8L59,41.6l-3.1,2.3l1.7,4.3c-0.5,0.6-1,1.3-1.4,2
				l-4.6-0.3l-1.2,3.6l3.9,2.4c0,0.4-0.1,0.8-0.1,1.2s0,0.8,0.1,1.2l-3.9,2.4l1.2,3.6l4.6-0.3c0.4,0.7,0.9,1.4,1.4,2l-1.7,4.3
				l3.1,2.3l3.5-2.9c0.7,0.3,1.5,0.6,2.3,0.8l1.1,4.4h3.8l1.1-4.4c0.8-0.2,1.6-0.4,2.3-0.8l3.5,2.9l3.1-2.3L78,66
				c0.5-0.6,1-1.3,1.4-2l4.6,0.3l1.2-3.6l-3.9-2.4C81.4,57.9,81.4,57.5,81.4,57.1z M75.2,57.1c0,4.1-3.3,7.5-7.5,7.5
				c-4.1,0-7.5-3.3-7.5-7.5c0-4.1,3.3-7.5,7.5-7.5C71.9,49.7,75.2,53,75.2,57.1z"/>
			<path class="st1" d="M100.9,38.9c-0.1-0.3-0.1-0.5-0.2-0.8l2.2-2.2l-1.4-2.2l-3,0.9c-0.4-0.4-0.8-0.8-1.3-1.1l0.5-3.1l-2.4-1
				l-1.9,2.5c-0.5-0.1-1.1-0.1-1.7-0.1L90.3,29l-2.5,0.6v3.1c-0.5,0.2-1,0.5-1.4,0.9l-2.8-1.4l-1.7,2l1.8,2.6
				c-0.3,0.5-0.5,1-0.6,1.5L80,38.8l-0.2,2.6l3,1c0,0.3,0.1,0.5,0.2,0.8c0.1,0.3,0.1,0.5,0.2,0.8L81,46.2l1.4,2.2l3-0.9
				c0.4,0.4,0.8,0.8,1.3,1.1l-0.5,3.1l2.4,1l1.9-2.5c0.5,0.1,1.1,0.1,1.7,0.1l1.4,2.8l2.5-0.6v-3.1c0.5-0.2,1-0.5,1.4-0.9l2.8,1.4
				l1.7-2l-1.8-2.6c0.3-0.5,0.5-1,0.6-1.5l3.1-0.5l0.2-2.6l-3-1C101.1,39.4,101,39.1,100.9,38.9z M96.9,39.8
				c0.6,2.7-1.1,5.5-3.8,6.1s-5.5-1.1-6.1-3.8c-0.6-2.7,1.1-5.5,3.8-6.1S96.2,37.1,96.9,39.8z"/>
			<path class="st1" d="M102.6,65.4c-0.1-0.2-0.1-0.5-0.2-0.7l1.9-1.9l-1.2-1.9l-2.6,0.8c-0.3-0.3-0.7-0.7-1.1-0.9l0.4-2.7l-2.1-0.9
				l-1.6,2.2c-0.5-0.1-0.9-0.1-1.4-0.1l-1.1-2.4l-2.2,0.5v2.7c-0.4,0.2-0.8,0.5-1.2,0.7l-2.4-1.2l-1.5,1.7l1.6,2.2
				c-0.2,0.4-0.4,0.9-0.6,1.3l-2.7,0.4l-0.2,2.2l2.5,0.9c0,0.2,0.1,0.5,0.1,0.7c0.1,0.2,0.1,0.5,0.2,0.7l-1.9,1.9l1.2,1.9l2.6-0.8
				c0.3,0.3,0.7,0.7,1.1,0.9l-0.4,2.7l2.1,0.9l1.6-2.2c0.5,0.1,0.9,0.1,1.4,0.1l1.2,2.4l2.2-0.5v-2.7c0.4-0.2,0.8-0.5,1.2-0.7
				l2.4,1.2l1.5-1.7l-1.6-2.2c0.2-0.4,0.4-0.9,0.6-1.3l2.7-0.4l0.2-2.2l-2.5-0.9C102.7,65.9,102.7,65.7,102.6,65.4z M99.1,66.3
				c0.6,2.4-0.9,4.7-3.3,5.3c-2.4,0.6-4.7-0.9-5.3-3.3c-0.6-2.4,0.9-4.7,3.3-5.3S98.6,63.9,99.1,66.3z"/>
		</g>
	</g>
	<path class="st2" d="M28.7,104.6c0.1,0.6-0.1,1.1-0.3,1.4L0,157h129.2l29.1-51.9"/>
	<text transform="matrix(1 0 0 1 35.4313 136.2174)" class="st1 st3 st4">Operations</text>
</g>
</svg>
