<?xml version="1.0" encoding="utf-8"?>
<!-- Generator: Adobe Illustrator 27.2.0, SVG Export Plug-In . SVG Version: 6.00 Build 0)  -->
<svg version="1.1" id="Layer_1" xmlns="http://www.w3.org/2000/svg" xmlns:xlink="http://www.w3.org/1999/xlink" x="0px" y="0px" viewBox="0 0 158.5 157.8" style="enable-background:new 0 0 158.5 157.8;" xml:space="preserve">
<style type="text/css">
	.st0{fill:#DC6326;}
	.st1{fill:#FFFFFF;}
	.st2{opacity:0.2;fill:#010101;enable-background:new    ;}
	.st3{font-family:'Roboto-Bold','Roboto',sans-serif;font-weight:700;}
	.st4{font-size:18px;}
</style>
<path class="st0" d="M129.7,0H0.1l28.6,105.5c0.1,0.4,0.1,0.8,0,1.1L0.1,157.8h129.6l28.8-51.8"/>
<path class="st1" d="M103.9,44.8c2.3-1.1,4-3.5,4-6.2c0-3.8-3.1-6.9-6.9-6.9c-3.8,0-6.9,3.1-6.9,6.9c0,2.8,1.6,5.1,4,6.2h-35
	c2.3-1.1,4-3.5,4-6.2c0-3.8-3.1-6.9-6.9-6.9c-3.8,0-6.9,3.1-6.9,6.9c0,2.8,1.6,5.1,4,6.2H49v15.5h6v24.2h10.1v-2.1l15.5-7.9
	l15.5,7.9v2.1h10.1V60.3h6V44.8H103.9z M97.3,38.6c0-2.1,1.7-3.7,3.7-3.7c2.1,0,3.7,1.7,3.7,3.7c0,2.1-1.7,3.7-3.7,3.7
	S97.3,40.6,97.3,38.6z M90,46.9l-9.9,11.3h-9.2l9.9-11.3H90z M56.5,38.6c0-2.1,1.7-3.7,3.7-3.7s3.7,1.7,3.7,3.7
	c0,2.1-1.7,3.7-3.7,3.7S56.5,40.6,56.5,38.6z M61.9,58.2h-9.2l9.9-11.3h9.2L61.9,58.2z M65.2,78V66.4l11.3,5.8L65.2,78z M96.1,78
	l-11.3-5.8l11.3-5.8V78z M96.1,62.2l-15.5,7.9l-15.5-7.9v-1.9H96v1.9H96.1z M98.3,58.2h-9.2L99,46.9h9.2L98.3,58.2z"/>
<path class="st2" d="M28.7,105.2c0.1,0.6-0.1,1.1-0.3,1.4L0,157.6h129.2l29.1-51.9"/>
<text transform="matrix(1 0 0 1 27.4167 136.2095)" class="st1 st3 st4">Construction</text>
</svg>
