<?xml version="1.0" encoding="utf-8"?>
<!-- Generator: Adobe Illustrator 27.2.0, SVG Export Plug-In . SVG Version: 6.00 Build 0)  -->
<svg version="1.1" id="Layer_1" xmlns="http://www.w3.org/2000/svg" xmlns:xlink="http://www.w3.org/1999/xlink" x="0px" y="0px"
	 viewBox="0 0 176.5 175.6" style="enable-background:new 0 0 176.5 175.6;" xml:space="preserve">
<style type="text/css">
	.st0{opacity:0.2;fill:#010101;enable-background:new    ;}
	.st1{fill:none;stroke:#D95B44;stroke-width:1.1062;stroke-miterlimit:10;}
	.st2{fill:#B4B4B4;}
	.st3{fill:#333333;}
	.st4{font-family:'Roboto-Bold','Roboto',sans-serif;font-weight:700;}
	.st5{font-size:19.9107px;}
</style>
<path class="st0" d="M32.7,116.9c0.1,0.6-0.1,1.2-0.3,1.6L1,174.9h143l32.1-57.4"/>
<path class="st1" d="M144.2,0.6H0.9l31.7,116.7c0.1,0.4,0.1,0.8,0,1.3L0.9,175.1h143.3l31.8-57.3"/>
<g>
	<path class="st2" d="M99.3,91c0.1,0.1,0.2,0.2,0.2,0.2c0-0.1,0.1-0.2,0.1-0.3l2.7-12.2l-12,3.4L99.3,91z"/>
	<path class="st2" d="M81.5,86.4c-1,2.5-3.3,4.2-6.1,4.2c-3.6,0-6.5-2.9-6.5-6.5c0-2.4,1.4-4.6,3.4-5.7c0.1,0,0.1-0.1,0.2-0.1
		s0.2-0.1,0.3-0.1c0.1,0,0.1-0.1,0.2-0.1c0.1-0.1,0.3-0.1,0.5-0.2c0.1,0,0.1,0,0.2-0.1c0.1,0,0.3-0.1,0.4-0.1h0.1
		c0.2,0,0.4-0.1,0.5-0.1h0.1c0.2,0,0.4,0,0.6,0c1.4,0,2.8,0.5,3.9,1.3l0,0l3.8-1.1c-1.9-2.3-4.7-3.7-7.8-3.7c-0.2,0-0.4,0-0.6,0
		c-0.1,0-0.1,0-0.2,0s-0.3,0-0.4,0s-0.1,0-0.2,0c-0.2,0-0.3,0-0.5,0.1h-0.1c-0.2,0-0.4,0.1-0.6,0.1l0,0c-0.2,0-0.4,0.1-0.5,0.2h-0.1
		c-0.2,0.1-0.3,0.1-0.5,0.2c0,0,0,0-0.1,0c-3.7,1.5-6.3,5.1-6.3,9.3c0,5.5,4.5,10,10,10c5.1,0,9.3-3.8,9.9-8.8L81.5,86.4L81.5,86.4z
		"/>
	<path class="st2" d="M133.9,50.4h-13.4l-6.9,10l0,0l-8.9,13l-17.4,4.9l-2.1,0.6l-5.3,1.5l-2.4,0.7l-2.6,0.7c-0.1,0-0.2,0.1-0.3,0.1
		c0,0-0.1,0-0.1,0.1l0,0l0,0c-0.9,0.5-1.3,1.5-1,2.5s1.1,1.6,2.1,1.6c0.2,0,0.4,0,0.6-0.1l2.6-0.7l2.4-0.7l5.3-1.5l1.2-0.3l9.9,10
		c0.8,0.8,1.7,1,2.2,1l0,0c1,0,2.2-0.6,2.6-2.4l3-13.6l2.2-0.6L123,54.8h11.1c1.2,0,2.2-1,2.2-2.2C136.1,51.4,135.1,50.4,133.9,50.4
		z M99.6,90.9c0,0.1-0.1,0.2-0.1,0.3c-0.1,0-0.1-0.1-0.2-0.2l-8.9-8.9l12-3.4L99.6,90.9z"/>
	<path class="st2" d="M75.4,72.2c3.9,0,7.4,1.9,9.6,5l1.7-0.5l16.8-4.8L113.9,57H58.3l11.3,16.7C71.4,72.8,73.4,72.2,75.4,72.2z"/>
	<polygon class="st2" points="104.7,54.5 93.1,42.9 89,47 96.6,54.5 	"/>
	<polygon class="st2" points="81.5,41.1 68.1,54.5 95,54.5 	"/>
</g>
<text transform="matrix(1 0 0 1 49.4131 140.794)" class="st3 st4 st5">Material</text>
<text transform="matrix(1 0 0 1 44.5131 162.894)" class="st3 st4 st5">Selection</text>
</svg>
