<svg xmlns="http://www.w3.org/2000/svg" width="180" height="180" viewBox="0 0 180 180"><radialGradient id="a" cx="317.147" cy="261.414" r="25.806" gradientTransform="matrix(3.487 0 0 3.488 -1016.048 -821.703)" gradientUnits="userSpaceOnUse"><stop offset=".658" stop-color="#57B39A"/><stop offset="1" stop-color="#4C8991"/></radialGradient><path fill="url(#a)" d="M180 90.007c0 49.688-40.28 89.997-89.988 89.997s-90.012-40.308-90.012-89.997c0-49.726 40.304-90.007 90.012-90.007s89.988 40.281 89.988 90.007z"/><path fill-rule="evenodd" clip-rule="evenodd" fill="#fff" d="M119.333 90.757h-.581l-6.132-13.576c-2.541-6.792-6.984-6.38-6.984-6.38h-31.998c-4.828-.131-6.099 3.746-6.099 3.746l-6.15 16.21h-.558c-1.659 0-3.009 1.467-3.009 3.276v17.56c0 1.81 1.35 3.281 3.009 3.281h2.072v8.363c0 1.81 1.345 3.281 3.005 3.281h4.401c1.66 0 3.01-1.472 3.01-3.281v-8.363h34.665v8.363c0 1.81 1.35 3.281 3.009 3.281h4.402c1.659 0 3.004-1.472 3.004-3.281v-8.363h.934c1.659 0 3.005-1.472 3.005-3.281v-17.56c0-1.809-1.346-3.276-3.005-3.276zm-49.97-14.171s1.303-3.445 5.109-3.445h29.583s4.026-.474 5.658 4.631l5.817 12.314h-50.897l4.73-13.5zm-.09 30.043c-2.348 0-4.256-2.076-4.256-4.646 0-2.564 1.908-4.65 4.256-4.65 2.354 0 4.261 2.086 4.261 4.65.001 2.57-1.907 4.646-4.261 4.646zm42.334 0c-2.349 0-4.256-2.076-4.256-4.646 0-2.564 1.907-4.65 4.256-4.65 2.354 0 4.261 2.086 4.261 4.65 0 2.57-1.907 4.646-4.261 4.646zM154.284 76.98h-.577l-6.132-13.58c-2.54-6.792-6.984-6.375-6.984-6.375h-32.002c-4.828-.136-6.099 3.746-6.099 3.746l-3.08 8.119h2.775l2.133-6.08s1.303-3.441 5.109-3.441h29.584s4.021-.478 5.653 4.622l5.821 12.319h-34.697l5.662 12.535h.577c1.659 0 3.005 1.467 3.005 3.277v8.972h17.906v8.363c0 1.809 1.351 3.281 3.005 3.281h4.406c1.659 0 3.005-1.473 3.005-3.281v-8.363h.929c1.664 0 3.004-1.467 3.004-3.281v-17.55c.001-1.82-1.339-3.283-3.003-3.283zm-7.717 15.873c-2.353 0-4.261-2.082-4.261-4.65 0-2.569 1.908-4.646 4.261-4.646 2.349 0 4.257 2.077 4.257 4.646 0 2.568-1.908 4.65-4.257 4.65zM22.552 80.435v17.56c0 1.81 1.345 3.281 3.009 3.281h.928v8.358c0 1.814 1.345 3.286 3.009 3.286h4.402c1.66 0 3-1.472 3-3.286v-8.358h17.907v-8.972c0-1.814 1.345-3.281 3.009-3.281h.582l5.653-12.535h-34.693l5.822-12.314c1.631-5.1 5.653-4.631 5.653-4.631h29.583c3.811 0 5.114 3.445 5.114 3.445l2.133 6.08h2.771l-3.084-8.119s-1.271-3.881-6.094-3.746h-32.002s-4.448-.413-6.984 6.38l-6.127 13.575h-.581c-1.665 0-3.01 1.463-3.01 3.277zm6.469 7.95c0-2.569 1.908-4.65 4.261-4.65 2.349 0 4.261 2.082 4.261 4.65 0 2.564-1.912 4.65-4.261 4.65-2.353.001-4.261-2.086-4.261-4.65z"/></svg>