<svg xmlns="http://www.w3.org/2000/svg" width="180" height="180" viewBox="0 0 180 180"><radialGradient id="a" cx="105.786" cy="78.689" r="94.044" gradientTransform="matrix(.957 0 0 .957 -11.237 14.693)" gradientUnits="userSpaceOnUse"><stop offset=".658" stop-color="#739650"/><stop offset="1" stop-color="#668150"/></radialGradient><path fill="url(#a)" d="M180 90.005c0 49.696-40.291 89.995-90.002 89.995-49.704 0-89.998-40.299-89.998-89.995 0-49.711 40.294-90.005 89.998-90.005 49.711 0 90.002 40.294 90.002 90.005z"/><path fill="#fff" d="M101.625 106.647c-2.611-1.816-5.494-3.298-8.662-4.448v-10.615c1.392.316 2.634.934 3.74 1.838 1.102.916 2.151 1.842 3.146 2.789l5.573-5.456c-1.068-.982-2.044-1.854-2.939-2.606-.886-.755-1.805-1.399-2.756-1.929-.951-.53-1.955-.952-3.023-1.273-1.068-.316-2.315-.555-3.74-.708v-4.273h-5.687v4.322c-1.584.204-3.136.612-4.659 1.219-1.523.614-2.874 1.42-4.06 2.402-1.186.992-2.146 2.189-2.883 3.584-.727 1.411-1.092 2.993-1.092 4.781 0 3.593 1.266 6.363 3.797 8.297 2.016 1.547 4.982 3.084 8.896 4.626v11.745c-1.664-.432-3.056-1.13-4.186-2.077-1.121-.951-2.128-2.153-2.991-3.618l-6.169 5.278c1.781 2.371 3.722 4.174 5.841 5.402 2.114 1.221 4.612 1.989 7.504 2.311v7.229h5.687v-7.172c3.759-.361 6.722-1.386 8.906-3.087 2.798-2.208 4.204-5.436 4.204-9.666.001-3.834-1.48-6.802-4.447-8.895zm-14.349-6.576c-.478-.204-.989-.443-1.542-.718-.553-.271-1.064-.598-1.514-.946-.455-.356-.839-.776-1.153-1.249-.319-.474-.479-1.008-.479-1.599 0-.636.15-1.187.445-1.659.295-.479.661-.875 1.092-1.217.436-.33.938-.591 1.486-.769.553-.183 1.106-.331 1.664-.453v8.61zm10.407 18.347c-.3.539-.685.994-1.153 1.364-.482.377-1.031.673-1.664.891-.633.22-1.266.387-1.902.504v-9.729c1.157.556 2.062 1.051 2.732 1.493 1.622.9 2.428 2.067 2.428 3.497-.001.785-.145 1.446-.441 1.98zm16.94-49.512c1.594-.551 2.742-2.053 2.742-3.83 0-1.629-.961-3.023-2.348-3.675 5.892-6.18 8.831-14.407 7.589-20.547-1.195-5.909-5.864-9.279-12.53-9-3.384.143-6.258 1.137-8.592 2.875-3.107-3.867-7.13-6.117-11.484-6.117-4.378 0-8.4 2.238-11.503 6.113-2.334-1.742-5.208-2.728-8.574-2.871-6.839-.279-11.705 3.07-13.026 8.965-1.359 6.049 1.603 14.233 8.053 20.604-1.369.656-2.32 2.034-2.32 3.654 0 1.776 1.153 3.279 2.747 3.83-9.698 10.655-16.237 27.947-16.237 45.087 0 12.851 5.479 23.205 15.839 29.955 8.414 5.487 18.445 7.437 25.022 7.437 10.604 0 40.856-6.867 40.856-37.392-.001-17.14-6.535-34.433-16.234-45.088zm-49.79-26.306c.188-.834.646-2.785 4.748-2.621 2.189.092 3.755.727 4.903 2.016-.422 1.151-.797 2.358-1.102 3.626l7.903 1.924c1.547-6.354 5.128-10.798 8.714-10.798 3.459 0 6.998 4.24 8.597 10.317l7.866-2.072c-.272-1.034-.596-2.016-.952-2.972 1.153-1.298 2.729-1.95 4.908-2.042 3.685-.168 4.031 1.563 4.214 2.484 1.003 4.957-4.182 15.11-13.12 18.443l-.221.103h-22.56l-.075-.038c-10.008-4.233-14.873-13.706-13.823-18.37zm45.36 94.516c-6.623 4.24-14.915 6.139-20.193 6.139-9.103 0-32.724-5.253-32.724-29.262 0-18.551 8.78-37.784 20.246-44.848h24.96c11.461 7.064 20.246 26.297 20.246 44.848.001 10.025-4.218 17.798-12.535 23.123z"/></svg>