<svg xmlns="http://www.w3.org/2000/svg" width="180" height="180" viewBox="0 0 180 180"><radialGradient id="a" cx="78.436" cy="109.946" r="87.985" gradientTransform="matrix(1.023 0 0 1.023 9.766 -22.465)" gradientUnits="userSpaceOnUse"><stop offset=".658" stop-color="#7A1731"/><stop offset="1" stop-color="#5D0025"/></radialGradient><path fill="url(#a)" d="M180 90.005c0 49.701-40.294 89.995-90 89.995s-90-40.294-90-89.995c0-49.707 40.294-90.005 90-90.005s90 40.298 90 90.005z"/><path fill="#fff" d="M104.018 50.838h-28.04c-1.174 0-2.124.947-2.124 2.124 0 1.172.949 2.123 2.124 2.123h28.04c1.177 0 2.124-.951 2.124-2.123 0-1.177-.948-2.124-2.124-2.124zm-14.02 34.172c-13.005 0-24.047 1.617-24.602 2.17-.556.553-.898 1.317-.898 2.161v26.012c0 .844.342 1.607.898 2.161.555.553 1.319.895 2.161.895h44.879999999999995c.847 0 1.61-.342 2.163-.895.554-.554.898-1.317.898-2.161v-26.012c0-.844-.345-1.608-.898-2.161-.553-.553-11.599-2.17-24.602-2.17zm41.058 37.716v6.117c0 .929-.417 1.753-1.069 2.312-.22.191-.722.707-.722 1.359v8.906c0 1.688-1.373 3.061-3.061 3.061h-8.424c-1.688 0-3.061-1.373-3.061-3.061v-5.766c0-.797-.619-1.051-.619-1.051s-.792-.225-1.043-.797c-.255-.576-1.108-.637-1.47-.66-1.912-.137-4.462-.211-7.261-.211-4.05 0-6.434.229-8.977.965-1.063.863-3.049 1.453-5.355 1.453-2.304 0-4.289-.59-5.355-1.453-2.538-.735-4.922-.965-8.965-.965-2.857 0-5.458.079-7.38.215-.342.023-1.205.263-1.477.736-.274.479-.624.717-1 .717-.377 0-.539.15-.539.638v6.179c0 1.688-1.371 3.061-3.061 3.061h-8.423c-1.688 0-3.059-1.373-3.059-3.061v-8.522s-.567-1.599-.807-1.813c-.604-.554-.984-1.355-.984-2.241v-6.117c0-1.303.816-2.404 1.959-2.841.591-.229.75-.506.769-1.181.147-4.796.333-6.914.333-8.452 0-1.462 2.177-5.339 5.091-8.676.609-.699 1.247-1.843 1.247-3.371v-13.247c0-.801-.323-1.856-.778-2.405-.94-1.134-2.421-2.916-2.677-3.211-.375-.431-1.111-.928-1.692-.928h-1.575c-.844 0-1.528-.689-1.528-1.533v-9.436c0-.844.685-1.528 1.528-1.528h3.059c.3 0 .569.089.799.239.204.131.637.525 1.144.525h.98c.398 0 .74-.126.74-1.027v-18.239c0-1.275.633-2.396 1.599-3.089.185-.136.595-.248.595-1.205v-6.075c0-.844.685-1.528 1.533-1.528h1.06c.844 0 1.526.685 1.526 1.528v5.695c0 .459.25.445.354.262.145-.249.291-.464.443-.642 2.383-2.794 12.832-3.624 19.479-3.862.145-.005.539-.356.642-.492.206-.277.532-.455.9-.455.356 0 .666.16.872.408.103.122.391.464.696.459l.438-.009c.145 0 .522-.281.609-.394.206-.281.534-.464.909-.464.352 0 .661.16.867.403.108.126.54.455.704.455l.436.009c.131 0 .518-.281.604-.403.211-.281.534-.464.909-.464.39 0 .718.188.924.474.099.146.427.464.83.478 6.658.249 16.942 1.087 19.298 3.853.117.136.229.3.343.483.138.22.429.483.429-.117v-5.676c0-.844.685-1.528 1.53-1.528h1.06c.844 0 1.528.685 1.528 1.528v6.234c0 .497.422.914.618 1.055.952.693 1.575 1.814 1.575 3.08v17.972c0 .825.338 1.294.877 1.294h1.082c.226 0 .437-.08.605-.267.276-.305.656-.497 1.097-.497h3.061c.849 0 1.528.685 1.528 1.528v9.436c0 .844-.68 1.533-1.528 1.533h-1.753c-.6 0-.802.098-1.359.75-.318.379-2.958 3.558-2.958 3.558s-.651.788-.651 2.124v13.786c0 1.088.356 1.932 1.036 2.7 3.019 3.394 5.302 7.425 5.302 8.92 0 1.5.178 3.544.323 8.072.028.942.36 1.378.867 1.594 1.095.457 1.874 1.54 1.874 2.806zm-9.404-42.839c0 .539.305.834.633.469.244-.276 1.214-1.453 1.697-2.039.168-.202.07-.562 0-.685-.127-.22-.197-.473-.197-.75v-7.697l-.755-.975h-.529c-.492 0-.849.234-.849.924v10.753zm-63.319-10.753c0-.689-.356-.924-.851-.924h-.53s-.755-.033-.755.975v7.697c0 .277-.072.53-.194.75-.07.122-.169.483 0 .685.483.586 1.453 1.763 1.697 2.039.328.366.633.07.633-.469v-10.753zm52.357-6.225c-3.926-.591-11.555-1.364-20.693-1.364-8.925 0-16.413.741-20.417 1.322-1.141.164-2.533 1.088-2.533 2.203v10.355c0 1.725 1.723 2.517 2.77 2.334 7.35-1.289 20.025-1.42 20.196-1.42.167 0 12.808.131 20.159 1.411 1.05.183 2.774.066 2.774-2.325v-10.036c.001-1.234-1.25-2.33-2.256-2.48zm7.367 27.281c0-2.705-1.898-5.808-2.985-6.961-2.655-2.836-24.839-3.066-25.057-3.066-.225 0-22.399.23-25.062 3.07-1.083 1.148-2.995 4.256-2.995 6.957v23.077c0 1.622 1.913 3.474 2.998 4.631 1.081 1.153 2.515 1.791 4.05 1.791h42.019c1.53 0 2.97-.638 4.053-1.796 1.082-1.152 2.98-3.004 2.98-4.626v-23.077zm10.191 34.191c0-.844-.685-1.528-1.528-1.528h-73.44c-.846 0-1.53.685-1.53 1.528v2.808c0 .844.685 1.528 1.53 1.528h73.439c.844 0 1.528-.685 1.528-1.528v-2.808zm-67.444-8.391c0-.849-.684-1.528-1.53-1.528h-4.076c-.849 0-1.533.68-1.533 1.528v1.021c0 .844.684 1.528 1.533 1.528h4.076c.846 0 1.53-.685 1.53-1.528v-1.021zm65.526 0c0-.849-.684-1.528-1.532-1.528h-4.073c-.849 0-1.533.68-1.533 1.528v1.021c0 .844.685 1.528 1.533 1.528h4.073c.849 0 1.532-.685 1.532-1.528v-1.021zm-37.989-24.225c0 .633-.514 1.148-1.151 1.148h-17.082c-.633 0-1.148-.516-1.148-1.148 0-.633.516-1.148 1.148-1.148h17.082c.637-.001 1.151.515 1.151 1.148zm0 5.353c0 .633-.514 1.148-1.151 1.148h-17.082c-.633 0-1.148-.516-1.148-1.148 0-.633.516-1.148 1.148-1.148h17.082c.637 0 1.151.515 1.151 1.148zm0 5.353c0 .638-.514 1.148-1.151 1.148h-17.082c-.633 0-1.148-.511-1.148-1.148 0-.628.516-1.144 1.148-1.144h17.082c.637 0 1.151.516 1.151 1.144zm0 5.358c0 .633-.514 1.148-1.151 1.148h-17.082c-.633 0-1.148-.516-1.148-1.148 0-.633.516-1.148 1.148-1.148h17.082c.637 0 1.151.515 1.151 1.148zm0 5.353c0 .633-.514 1.148-1.151 1.148h-17.082c-.633 0-1.148-.516-1.148-1.148 0-.633.516-1.148 1.148-1.148h17.082c.637-.001 1.151.515 1.151 1.148zm22.694-21.417c0 .633-.516 1.148-1.146 1.148h-17.086c-.63 0-1.146-.516-1.146-1.148 0-.633.516-1.148 1.146-1.148h17.086c.631-.001 1.146.515 1.146 1.148zm0 5.353c0 .633-.516 1.148-1.146 1.148h-17.086c-.63 0-1.146-.516-1.146-1.148 0-.633.516-1.148 1.146-1.148h17.086c.631 0 1.146.515 1.146 1.148zm0 5.353c0 .638-.516 1.148-1.146 1.148h-17.086c-.63 0-1.146-.511-1.146-1.148 0-.628.516-1.144 1.146-1.144h17.086c.631 0 1.146.516 1.146 1.144zm0 5.358c0 .633-.516 1.148-1.146 1.148h-17.086c-.63 0-1.146-.516-1.146-1.148 0-.633.516-1.148 1.146-1.148h17.086c.631 0 1.146.515 1.146 1.148zm0 5.353c0 .633-.516 1.148-1.146 1.148h-17.086c-.63 0-1.146-.516-1.146-1.148 0-.633.516-1.148 1.146-1.148h17.086c.631-.001 1.146.515 1.146 1.148z"/></svg>