<?xml version="1.0" standalone="no"?><!-- Generator: Gravit.io --><svg xmlns="http://www.w3.org/2000/svg" xmlns:xlink="http://www.w3.org/1999/xlink" style="isolation:isolate" id="svg" width="80" height="80"><path d="M 79 39.50380367552833 C 79 61.31524951667025 61.31921481481481 79 39.5 79 C 17.685466666666667 79 0 61.31524951667025 0 39.50380367552833 C 0 17.68709120673181 17.685466666666667 0 39.5 0 C 61.31921481481481 0 79 17.68709120673181 79 39.50380367552833 Z" style="stroke:none;fill:#19487E;stroke-miterlimit:10;"/><g shape="[GCompoundPath]"><path d="M 54.086237670267735 38.204014876551504 C 54.675434476279946 38.20401487655151 55.20216063879755 38.44051619841376 55.260685767966194 38.73410404624278 L 55.62696101456083 40.570193126316255 C 55.68482855800846 40.86145091186091 55.25345232503523 41.099117264865356 54.66162517613904 41.099117264865356 C 54.06979802724285 41.099117264865356 53.546359793330204 40.86145091186091 53.488492249882576 40.57019312631625 L 53.12221700328793 38.73410404624276 C 53.065007045561295 38.44051619841376 53.49441052137155 38.204014876551504 54.086237670267735 38.204014876551504 Z M 53.03607327383748 45.57691445982883 C 54.62677313292625 46.068557601828196 55.851197745420386 46.52466729399113 57 47 C 56.934241427900425 45.872249854371105 56.642273367778316 41.653089572971275 55.946547674964776 39.146525070574 C 54.26707374354157 37.177622440292154 52.24170972287459 35.44114352287494 50 34 C 50.64377642085486 34.76950306940897 51.42630342883983 35.90482591746202 51.87740723344294 37.30169825693417 C 52.7546265852513 40.021463458350134 53.026867073743546 45.35206344938836 53.03607327383748 45.57691445982883 Z" style="stroke:none;fill:#FFFFFF;stroke-miterlimit:10;fill-rule:evenodd;"/></g><path d="M 44 28.5281876635658 C 43.82557487380818 28.38716903200836 42.13853056646103 27.06924490622952 39.89960740325295 27.003236185074975 C 37.1934941110488 26.916974788111645 35.021873247335954 28.58369499726394 35 28.600197177552577 L 35.00168255748738 29 C 35.49467190128996 28.638452231858054 37.453168816601234 27.322028304287272 39.859226023555806 27.39553801648211 C 41.99831744251262 27.461546737636652 43.60628154795289 28.658704907666838 44 28.981997621503307 L 44 28.5281876635658 Z" style="stroke:none;fill:#FFFFFF;stroke-miterlimit:10;"/><g shape="[GCompoundPath]"><path d="M 36.20153453027382 34.66715327067837 C 36.20153453027382 34.243122457630264 36.80727640705499 33.90365958763387 37.557355215412926 33.903659587633875 C 38.308025568572404 33.90365958763388 38.91376744535357 34.24312245763026 38.91376744535358 34.66715327067837 L 38.91376744535358 37.315559205544886 C 38.91376744535357 37.73839892080355 38.308025568572404 38.079052888589395 37.55735521541292 38.07905288858939 C 36.807276407054985 38.07905288858939 36.20153453027382 37.73839892080355 36.20153453027382 37.31555920554489 L 36.20153453027382 34.66715327067837 Z M 34.01932575737759 44 C 36.18852054463985 43.66649261895092 38.50619307708968 43.49080569500542 40.91792123298504 43.55750717121524 C 41.34974893811223 35.534272461405976 39.94956239285732 30.80025429719325 39.690465769781 30.00340987604385 C 37.2887938755119 29.942068339886603 35.40117441378464 30.726406234246674 35.007205575956256 30.9026887070869 C 34.91019222850302 31.33982159581909 34.46594208254339 33.473673285638455 34.21867635549795 37.133321243757365 C 33.94774883639075 41.13481426745158 33.99507242051428 43.33655853127023 34.01932575737759 44 Z" style="stroke:none;fill:#FFFFFF;stroke-miterlimit:10;fill-rule:evenodd;"/></g><g shape="[GCompoundPath]"><path d="M 40.1114435302917 20.19575600024183 L 40.111443530291695 25.865908953509464 L 38.76458489154824 25.86590895350946 L 38.76458489154824 20.195756000241825 C 38.76458489154824 19.525300767789133 39.06469708302169 18.985430143280336 39.43717277486911 18.985430143280336 C 39.810209424083766 18.985430143280336 40.111443530291695 19.525300767789133 40.1114435302917 20.19575600024183 Z M 41.021316379955124 20.901275618160934 C 41.021316379955124 20.265884771174658 41.32198952879581 19.755637506801282 41.692782348541506 19.755637506801285 C 42.06525804038893 19.755637506801285 42.367053103964096 20.265884771174655 42.367053103964096 20.901275618160934 L 42.367053103964096 26.63672087540052 L 41.021316379955124 26.250408076899824 L 41.021316379955124 20.901275618160934 Z M 37.71559461480928 26.250408076899827 L 36.36873597606582 26.63672087540052 L 36.368735976065814 20.901275618160934 C 36.36873597606582 20.265884771174658 36.66940912490651 19.755637506801285 37.04076290201945 19.755637506801285 C 37.413799551234106 19.755637506801282 37.71559461480928 20.265884771174658 37.71559461480928 20.901275618160938 L 37.71559461480928 26.250408076899827 Z M 39.35302916978309 18 C 36.78889304412865 18 35.021877337322366 19.50353666646515 35.00448765893792 19.518650625717914 L 35 19.5120004836467 L 35 28 C 35.53459237097981 27.69711625657457 37.4794315632012 26.708663321443687 39.906694091249065 26.760655341273207 C 41.9109947643979 26.80781089414183 43.45755422587883 27.60824617616831 44 27.929871229067164 L 44 19.48600447373194 C 43.85976065818998 19.38202043407291 41.94465220643231 18 39.35302916978309 18 Z" style="stroke:none;fill:#FFFFFF;stroke-miterlimit:10;fill-rule:evenodd;"/></g><path d="M 60 49 C 59.67541917114838 47.15974818020854 59.08636507434356 45.3873696635845 58.2733312242961 43.71060397403108 C 57.89243910155014 43.62384418650403 57.60392280923758 43.42966751918158 57.56469471686175 43.20834153059217 L 57.358430876304965 42.02026362384418 C 56.94590319519139 41.326775526264015 56.48782031002847 40.65276411567971 56 40 C 56.58019614046188 42.79519968522527 56.80607402720658 46.74601613220539 56.83834229674154 47.38284477670667 C 58.50173995571022 48.1294511115483 59.59379943055995 48.75683651386976 60 49 Z" style="stroke:none;fill:#FFFFFF;stroke-miterlimit:10;"/><g shape="[GCompoundPath]"><path d="M 49.29751106596038 35.662186559679036 C 49.90472389521806 35.662186559679036 50.445758653218206 35.946840521564695 50.506712139902774 36.30130391173521 L 50.8817212103621 38.511133400200606 C 50.94151367825266 38.865596790371114 50.49858500834483 39.150250752256774 49.890211160293156 39.15025075225677 C 49.2818373122415 39.150250752256774 48.74080255424135 38.86559679037112 48.68101008635077 38.511133400200606 L 48.303678978303466 36.301303911735204 C 48.24446701980989 35.946840521564695 48.68797619911473 35.662186559679036 49.29751106596038 35.662186559679036 Z M 47.7359407880415 44.5321965897693 C 49.682969305565635 44.93179538615848 51.44887889122706 45.446940822467404 53 46 C 52.964588926783264 45.26459378134403 52.70335969813512 40.275025075225685 51.994557724403165 37.70411233701103 C 51.317103258109 35.24694082246741 49.7154778317974 33.55225677031093 49.523329221391776 33.3542627883651 C 48.087148973224004 32.40160481444333 46.566214353094836 31.60902708124373 45 31 C 45.56425513387998 31.70531594784353 46.963282780640014 33.70511534603811 47.36383426456716 36.667201604814444 C 47.7220085625136 39.30912738214644 47.7359407880415 43.76308926780341 47.7359407880415 44.5321965897693 Z" style="stroke:none;fill:#FFFFFF;stroke-miterlimit:10;fill-rule:evenodd;"/></g><path d="M 35.033657442034404 29.69440800792882 L 35.00785340314136 29.704945662827825 L 35 29.999012094853217 C 35.39491398653702 29.892647640716376 37.28758414360509 29.42701501486654 39.728870605833954 29.482008401370727 C 41.85153328347046 29.53074505527863 43.63874345549738 29.918333174532698 44 30 L 43.98765893792073 29.74512047213029 C 43.97083021690352 29.737217230956034 42.18249813014211 29.031194352722622 39.8511593118923 29.001227896603574 C 37.16697830964847 28.966321914750615 35.05441286462228 29.687163370185754 35.033657442034404 29.69440800792882 Z" style="stroke:none;fill:#FFFFFF;stroke-miterlimit:10;"/><g shape="[GCompoundPath]"><path d="M 43.437037659717554 34.11119490531256 C 44.12373907195696 34.11119490531256 44.706287827841294 34.41972515501928 44.7415938130464 34.80333500921736 L 44.95284129119031 37.20646891235126 C 44.98520511096167 37.59066532595944 44.45620376597175 37.898022456845986 43.77067921990585 37.898022456845986 C 43.08221250840619 37.89802245684599 42.499663752521855 37.59066532595944 42.46671149966375 37.20646891235126 L 42.25605245460659 34.80333500921736 C 42.22133490248824 34.41972515501928 42.75092468056489 34.11119490531256 43.437037659717554 34.11119490531256 Z M 41.22158708809684 43.34422657952071 C 43.27816072629456 43.42458521870287 45.21116341627438 43.6644880174292 47 44 C 46.998234700739744 43.08614043908162 46.975285810356425 38.9362326127032 46.62693342299933 36.45684598625775 C 46.17207464694015 33.22314395843808 44.35440484196369 31.152589240824536 44.117266308002684 30.894503100385453 C 43.84894082044384 30.790095525389646 42.08540685944856 30.12962962962963 40 30 C 40.350117686617345 31.121501592089828 41.61054135843981 35.76059996648232 41.199226630800275 43.34422657952071 L 41.22158708809684 43.34422657952071 Z" style="stroke:none;fill:#FFFFFF;stroke-miterlimit:10;fill-rule:evenodd;"/></g><path d="M 44 29 L 44 29 L 44 29 L 44 29 Z" style="stroke:none;fill:#FFFFFF;stroke-miterlimit:10;"/><path d="M 43.95680628272252 28.670035509423656 C 43.9523186237846 28.668474655636636 43.887247569184744 28.644749678073907 43.7677636499626 28.607601357942794 L 43.63874345549739 28.734967026963748 C 43.57198952879581 28.71436375697506 43.49682124158564 28.690950950169743 43.40762902019446 28.665040777305187 L 43.53160059835453 28.536426425254618 C 43.47270007479432 28.518944862839973 43.40762902019446 28.501463300425332 43.34143605086014 28.482420884223668 L 43.223635003739716 28.613844773090875 C 43.15295437546747 28.593553673859603 43.072176514584896 28.573262574628316 42.99027673896785 28.552971475397044 L 43.09798055347794 28.419674561985403 C 43.03403141361257 28.404378194872596 42.96783844427824 28.388769657002378 42.90164547494391 28.373161119132163 L 42.80067314884069 28.505209349514182 C 42.72270007479432 28.487415616342137 42.641361256544506 28.468373200140476 42.55721765145849 28.450891637725835 L 42.651458489154834 28.317594724314198 C 42.58582647718774 28.3032348694736 42.52019446522065 28.289187185390404 42.45063575168288 28.275763842822023 L 42.36256544502618 28.410309439263276 C 42.28403141361257 28.394388730635658 42.20100972326104 28.378155851250632 42.11742707554226 28.363795996410033 L 42.19596110695588 28.22800171693916 C 42.13145100972326 28.215514886642993 42.06077038145102 28.20427673937644 41.99177262528049 28.193350762867283 L 41.91997008227375 28.329457213095562 C 41.837509349289455 28.315721699769774 41.75392670157068 28.301986186443983 41.66866118175019 28.289187185390404 L 41.73373223635004 28.152768564404724 C 41.66753926701571 28.142779100167793 41.596858638743456 28.13247746517345 41.52617801047121 28.123736683966126 L 41.46896035901272 28.26077964646661 C 41.3848167539267 28.249853669957464 41.30235602094241 28.23986420572053 41.21428571428572 28.22987474148359 L 41.26421091997008 28.091270925196078 C 41.19577412116679 28.08346665626097 41.12845923709798 28.076286728840675 41.054973821989535 28.068170289148163 L 41.01065818997757 28.207086276193078 C 40.92483171278984 28.199594178015374 40.841249065071054 28.19241425059507 40.75430067314884 28.18429781090256 L 40.789640987284976 28.045069653100242 C 40.72064323111444 28.040074920981773 40.64940164547495 28.034455847348497 40.57928197456993 28.029773285987435 L 40.55011219147345 28.169001443789753 C 40.46260284218399 28.163694540913877 40.37789827973074 28.158387638038 40.29094988780852 28.15464158894915 L 40.311705310396405 28.013852577359817 C 40.24102468212416 28.010730869785768 40.16978309648467 28.009482186756152 40.0974195961107 28.006984820696918 L 40.08563949139865 28.147461661528855 C 40.00766641735228 28.144027783197405 39.929693343305914 28.142779100167786 39.8511593118923 28.141530417138178 L 39.837696335078526 28.000117064034026 C 39.76196709050113 27.99980489327662 39.69184741959611 28.000117064034022 39.61667913238594 28.001053576306237 L 39.61667913238594 28.14059390486596 C 39.530291697830975 28.140593904865963 39.44446522064324 28.141530417138174 39.3586387434555 28.143091270925193 L 39.349102468212415 28.002302259335856 C 39.27729992520568 28.003863113122875 39.2060583395662 28.00698482069692 39.13593866866119 28.009482186756152 L 39.15220643231114 28.14839817380107 C 39.06357516828721 28.152144222889923 38.97830964846671 28.15682678425098 38.89192221391174 28.159636321067623 L 38.86836200448766 28.018222967963474 C 38.79712041884817 28.02228118780973 38.72812266267764 28.028524602957816 38.65575916230367 28.03227065204667 L 38.6843679880329 28.172747492878607 C 38.59798055347794 28.178990908026687 38.511032161555725 28.18429781090256 38.42857142857143 28.19241425059507 L 38.38930441286463 28.049752214461304 C 38.31806282722513 28.0566199711242 38.25074794315632 28.062863386272287 38.17894540014959 28.069731142935183 L 38.22101720269259 28.20958364225231 C 38.13519072550486 28.217700081944823 38.049925205684374 28.22706520466695 37.9663425579656 28.235493815116868 L 37.91473448017951 28.09564131579974 C 37.844053851907255 28.104069926249654 37.77561705310397 28.111874195184765 37.707180254300674 28.120927147149487 L 37.7621540762902 28.260467475709213 C 37.67632759910247 28.270769110703554 37.591623036649224 28.2813829164553 37.508040388930446 28.292621063721853 L 37.444652206432316 28.154641588949154 C 37.3773373223635 28.163694540913877 37.30609573672402 28.173684005150815 37.23765893792072 28.18429781090256 L 37.307778608825735 28.323213797947478 C 37.221952131638 28.336324969758458 37.13893044128647 28.349748312326838 37.056469708302174 28.363795996410037 L 36.982423335826475 28.22488000936512 C 36.91342557965595 28.235493815116868 36.84106207928197 28.247668474655633 36.77711293941661 28.259530963436998 L 36.858451757666415 28.398134779724508 C 36.77374719521316 28.414055488352126 36.691286462228874 28.42935185546494 36.6105086013463 28.44558473484996 L 36.524121166791325 28.30666874780505 C 36.453440538519075 28.321028602645647 36.3866866118175 28.33413977445663 36.32273747195213 28.347875287782415 L 36.41473448017951 28.485230421040306 C 36.33002991772625 28.502711983454947 36.24925205684369 28.521130058141804 36.17296185489903 28.538611620556445 L 36.073111443530294 28.40188082881336 C 36.00355272999252 28.416552854411364 35.9373597606582 28.432473563038982 35.87397157816006 28.447145588636985 L 35.981675392670155 28.583564209622665 C 35.89753178758414 28.60354313809654 35.816753926701566 28.62414640808522 35.74270755422588 28.642564482772077 L 35.6310770381451 28.50770671557342 C 35.55983545250561 28.526436961017676 35.495325355272996 28.5426698404027 35.43642483171279 28.559214890545128 L 35.55590875093493 28.693136145471573 C 35.46896035901272 28.71810980606391 35.391548242333585 28.73964958832481 35.32423335826477 28.759316346041285 L 35.19745699326852 28.628204627931478 C 35.084704562453254 28.66098255745893 35.02019446522065 28.68283451047723 35.01178010471204 28.685956218051274 L 35.14528795811519 28.814570570101846 C 35.07797307404637 28.836734693877553 35.03982797307404 28.84953369493113 35.03702318623785 28.85047020720334 L 35 28.81613142388887 L 35 29 C 35.533470456245325 28.842665938268233 37.45587135377711 28.334139774456627 39.8595736724009 28.360049947321187 C 41.96596858638744 28.38658446170055 43.560770381451015 28.84953369493113 44 28.990947048035274 L 44 28.770242322550438 L 43.92258788332087 28.832676474031295 C 43.921465968586396 28.83173996175908 43.885003739715785 28.81738010691849 43.81993268511594 28.794591641627967 L 43.98990276738969 28.641003628985057 L 43.95680628272252 28.670035509423656 Z" style="stroke:none;fill:#FFFFFF;stroke-miterlimit:10;"/><path d="M 43.589837286265855 16.98270401948843 L 43.529026475455055 16.926431181485995 C 43.5265444015444 16.924969549330086 43.50296469939327 16.8979293544458 43.46201047986762 16.86065773447016 L 43.33108108108108 17.05213154689403 C 43.266547159404304 16.990012180267968 43.192084942084946 16.921315468940318 43.10521235521236 16.844579780755176 L 43.2311776061776 16.647259439707675 C 43.182777164920026 16.604141291108405 43.131274131274125 16.558099878197318 43.0723248758963 16.512058465286238 L 42.95256480970767 16.71376370280146 C 42.8781025923883 16.654567600487212 42.798676227247654 16.58952496954933 42.713665195808055 16.52448233861145 L 42.827220077220076 16.318392204628502 C 42.77509652509653 16.276004872107187 42.719249862107006 16.236540803897686 42.66278268063982 16.194884287454325 L 42.551709873138435 16.404628501827037 C 42.47228350799779 16.34762484774665 42.38975455046884 16.2884287454324 42.30474351902923 16.232886723507917 L 42.409611141754 16.018026796589524 C 42.3550055157198 15.980755176613886 42.29481522338665 15.943483556638244 42.235865968008824 15.907673568818515 L 42.13782404853833 16.12545676004872 C 42.05591560948704 16.073568818514005 41.97090457804744 16.020219244823384 41.88341147269718 15.971985383678444 L 41.9746276889134 15.749817295980513 C 41.916298952013236 15.717661388550546 41.85734969663541 15.685505481120586 41.79591836734694 15.649695493300857 L 41.709666298952015 15.878440925700367 C 41.62527578599007 15.833861144945189 41.53778268063983 15.787819732034103 41.449048538334246 15.746163215590743 L 41.52475179260894 15.513763702801464 C 41.46828461114175 15.485261875761264 41.40437120794264 15.459683313032887 41.3423193601765 15.434835566382464 L 41.270959735245455 15.66650426309379 C 41.18160507446222 15.627771010962242 41.09411196911197 15.592691839220462 41.00165471594043 15.55688185140073 L 41.06556811913954 15.31863580998782 C 41.00351627137342 15.295980511571257 40.940843905129626 15.271863580998781 40.87630998345284 15.249939098660173 L 40.81984280198565 15.495493300852617 C 40.72986762272477 15.465529841656517 40.63741036955322 15.439220462850184 40.54495311638169 15.413641900121803 L 40.59087148372863 15.16516443361754 C 40.53006067291781 15.145432399512789 40.4661472697187 15.129354445797809 40.40223386651959 15.114738124238734 L 40.35817705460562 15.36979293544458 C 40.26696083838941 15.347137637028014 40.17512410369554 15.329598051157127 40.08142581356867 15.316443361753958 L 40.111210700496414 15.05481120584653 C 40.04543574186431 15.04311814859927 39.97966078323221 15.038002436053592 39.915126861555436 15.02923264311815 L 39.89402923331495 15.290864799025579 C 39.82639271924987 15.283556638246043 39.758756205184774 15.276248477466503 39.691740209597356 15.274056029232643 L 39.61293436293436 15.270401948842874 L 39.62038058466631 15.002192448233863 C 39.5546056260342 15.000000000000002 39.48945118587976 15.000000000000002 39.424296745725314 15 L 39.424296745725314 15.26747868453106 C 39.328736900165474 15.26747868453106 39.233177054605626 15.270401948842874 39.14134031991175 15.276248477466504 L 39.128309431880865 15.00803897685749 C 39.06253447324876 15.011693057247259 38.99862107004964 15.016808769792936 38.93098455598456 15.026309378806335 L 38.95208218422504 15.293788063337393 C 38.858383894098175 15.304019488428745 38.76530612244898 15.31644336175396 38.672228350799784 15.331790499390987 L 38.639340871483725 15.072350791717419 C 38.57418643132929 15.083313032886723 38.50903199117485 15.093544457978076 38.44511858797573 15.11035322777101 L 38.48545228902371 15.369792935444583 C 38.39237451737451 15.38733252131547 38.298676227247654 15.409987819732034 38.20746001103144 15.434835566382464 L 38.15905956977386 15.186358099878197 C 38.093905129619415 15.204628501827044 38.030612244897966 15.222898903775883 37.967939878654164 15.243361753958586 L 38.02254550468836 15.487454323995125 C 37.9288472145615 15.515956151035324 37.83763099834528 15.548112058465286 37.748276337562054 15.580267965895253 L 37.68808604522891 15.347137637028014 C 37.624793160507444 15.371254567600488 37.56398234969664 15.39756394640682 37.50068946497518 15.422411693057247 L 37.56770546056261 15.649695493300856 C 37.47710976282405 15.6884287454324 37.38775510204081 15.725700365408041 37.298400441257584 15.764433617539586 L 37.22952289023718 15.549573690621193 C 37.166230005515715 15.579537149817298 37.10976282404854 15.612423873325213 37.048952013237724 15.640925700365408 L 37.12217319360177 15.84993909866017 C 37.03219801434087 15.891595615103533 36.945945945945944 15.941291108404384 36.863416988416986 15.98733252131547 L 36.78337010479867 15.787819732034105 C 36.72504136789851 15.822898903775885 36.66485107556536 15.85797807551766 36.60838389409818 15.891595615103533 L 36.69091285162714 16.085261875761265 C 36.60217870932157 16.137880633373936 36.517788196359625 16.188306942752742 36.43587975730833 16.240194884287455 L 36.35335079977937 16.05822168087698 C 36.293160507446224 16.09987819732034 36.24103695532267 16.140073081607795 36.18394925537783 16.178075517661387 L 36.271442360728074 16.349817295980515 C 36.182087699944844 16.411936662606582 36.101420297848875 16.46747868453106 36.02571704357419 16.52448233861145 L 35.93636238279095 16.360048721071863 C 35.88237727523442 16.406820950060897 35.82715113072256 16.44920828258222 35.77626861555433 16.49013398294763 L 35.86376172090458 16.647259439707675 C 35.77502757859901 16.71814859926919 35.69746276889134 16.783191230207066 35.631067291781584 16.8394640682095 L 35.538610038610045 16.692570036540804 C 35.47904026475455 16.74445797807552 35.42567567567568 16.79123020706455 35.386583011583014 16.828501827040196 L 35.48028130170988 16.971741778319124 C 35.415126861555436 17.033130328867237 35.25627413127413 17.0952496954933 35.25565361279647 17.09817295980512 L 35.188637617209054 16.92204628501827 L 35.18863761720905 16.98270401948843 L 35 17.978075517661388 C 35.76013513513513 17.486967113276496 37.211527854385 16.749573690621197 39.19532542746828 16.670645554202196 C 41.29640099282957 16.58733252131547 43.09590457804743 17.459926918392206 44 18 L 43.72821290678434 17.127405602923268 L 43.58549365692223 17.304993909866017 C 43.58363210148925 17.302801461632157 43.54950358521788 17.264799025578565 43.482487589630445 17.20048721071864" style="stroke:none;fill:#FFFFFF;stroke-miterlimit:10;"/><path d="M 39.36823877589572 17.685915835324202 L 39.36823877589572 17.685915835324202 C 41.59089477992569 17.685915835324202 43.30577419557962 18.552263370227802 44 18.968589904799146 L 43.71947610351992 18.195901562858097 C 43.14822744159687 17.872092035969274 41.2973364397708 16.930931365223636 39.15458724261696 17.00403122314563 C 37.125181033939924 17.072562339947496 35.710093822807124 17.83154445852817 35.19665008500724 18.152498522216913 L 35 19 C 35.63925445500914 18.576249261108458 37.229456583338575 17.685915835324206 39.36823877589572 17.685915835324202 Z" style="stroke:none;fill:#FFFFFF;stroke-miterlimit:10;"/><g shape="[GCompoundPath]"><path d="M 29.992663917591187 35.664550700741955 C 30.02965914204968 35.287716405605934 30.671558738355884 34.98474855729595 31.430934398293445 34.98474855729596 C 32.187064863103075 34.98474855729596 32.77119998613196 35.287716405605934 32.73420476167347 35.66455070074196 L 32.49990167343633 38.02769991755977 C 32.462906448977826 38.405688375927454 31.822304930722808 38.71096455070074 31.064876387862 38.710964550700744 C 30.30614976695003 38.710964550700744 29.72461080002348 38.405688375927454 29.760307946430803 38.02769991755977 L 29.992663917591187 35.664550700741955 Z M 28.01698912370234 45 C 29.820019536784866 44.52910140148393 31.800886642878417 44.11014014839242 33.91610482726861 43.80659521846661 C 33.88624903209157 43.20873866446826 33.82718648076309 41.05103050288541 34.13093674473812 37.06859027205276 C 34.40093697938259 33.57320692497939 34.87862970221511 31.492250618301732 35 31 C 33.222282108915394 31.528029678483097 31.541271032643348 32.20898598516075 29.979034098053845 33.02209398186315 C 29.9498273419024 33.08153338829349 28.85230234963366 35.4244847485573 28.444056802539023 38.02596867271229 C 27.94429675283652 41.198186314921685 27.985186211448546 44.03742786479803 28.01698912370234 45 Z" style="stroke:none;fill:#FFFFFF;stroke-miterlimit:10;fill-rule:evenodd;"/></g><g shape="[GCompoundPath]"><path d="M 37.296444227959086 9.199115998275118 C 37.296444227959086 9.199115998275118 37.357817827569406 8.960758947822336 37.44374086702386 8.885457093574818 C 37.52966390647832 8.808969383354896 37.61324890404286 8.77517248814144 37.66819288845591 8.797703751617078 C 37.71436921578177 8.817270375161709 37.66176327325864 8.931112548512289 37.66176327325864 8.931112548512289 L 37.7079396005845 9.809238896075895 L 37.296444227959086 9.199115998275118 Z M 39.186166585484656 15.085705045278136 C 40.320701412566976 15.154484691677446 41.30852411105699 15.590879689521344 42 16 L 40.48611787627862 14.367669253988788 L 39.81860691670725 13.044846916774473 C 40.11553823672675 12.90550884001725 40.306088650754994 12.696205260888314 40.306088650754994 12.457848210435532 C 40.30608865075499 12.220677015955154 40.11787627861666 12.013152220784823 39.82562104237701 11.870849504096594 C 40.037798343887 11.802069857697283 40.205552849488555 11.70720137990513 40.27569410618607 11.575571366968523 C 40.18041889917195 11.15696420871065 39.971748660496836 11.425560586459682 39.76950803701901 11.15696420871065 C 39.78587433024842 10.9375808538163 39.74671212859231 10.459087968952137 39.74671212859231 10.459087968952137 L 39.69995129079396 7.951595515308323 C 39.69995129079396 7.951595515308323 39.829128105211886 7.758893919793015 40.15353141743789 7.680034497628288 C 40.38733560642961 7.623113410952996 40.802922552362396 7.308268650280295 40.85260594252314 7.221108236308755 C 40.90462737457379 7.124460974558001 40.9046273745738 6.669685209141873 40.89878226984901 6.606241914618371 C 40.88358499756454 6.4846916774471755 40.86078908913785 6.446744286330317 40.864296151972724 6.311556705476499 C 40.86663419386264 6.1864489003881 40.99814905017048 6.009756360500217 40.95781782756941 5.926153514445881 L 41.05075499269362 5.8472940922811585 L 41.41139795421334 6.152059077188446 L 41.30209449585972 5.734044846916776 L 41.66098392596201 5.606565329883572 L 41.18811495372625 5.447067701595518 L 41.09576229907453 5 L 40.833901607403796 5.362278999568781 L 40.367462250365314 5.250808538163003 L 40.76785192401364 5.608937041828376 L 40.746225036531904 5.699062095730919 C 40.709400876765706 5.683053040103495 40.560935216755965 5.838993100474343 40.5089137847053 5.91844545062527 C 40.44637116415003 6.0038270806382075 40.579055041402825 6.52323199655024 40.57379444715051 6.61810047434239 C 40.556843643448616 6.83096162138853 40.491962981003404 7.114381198792582 40.43058938139309 7.1375053902544225 C 40.33589868485144 7.174859853385081 40.1336580613736 7.221108236308754 40.02552362396493 7.294038378611471 C 39.67423283000487 7.538917636912462 39.511738918655624 7.433969383354895 39.46906965416464 7.419739111686072 C 39.23468095470044 7.349180681328159 39.25864588407209 7.286923242777059 39.25864588407209 7.286923242777059 C 39.398928397467124 7.185532557136696 39.4760837798344 6.828589909443729 39.47608377983439 6.680357912893491 C 39.47608377983439 6.247520482966799 39.32995616171457 6.009756360500217 38.940087676570876 5.995526088831393 C 38.72381880175353 5.988410952996983 38.21997077447637 6.3566192324277715 38.21997077447637 6.790642518326865 C 38.21997077447637 6.938874514877103 38.354992693619096 7.176638637343682 38.4198733560643 7.29403837861147 C 38.4198733560643 7.29403837861147 38.498782269849 7.3740836567486 38.39006332196785 7.43041181543769 C 38.2813443740867 7.484368262181977 38.01773015099854 7.349180681328159 37.9171943497321 7.4914833980163875 C 37.81432050657574 7.633786114704616 37.80789089137847 8.057136696852092 37.62844617632732 8.223156532988359 C 37.44958597174866 8.389176369124625 37.34437408670239 8.701649417852522 37.14973209936679 8.766278568348426 C 36.95333658061374 8.830314790858129 36.89254749147589 8.562311341095299 36.76863127131028 8.702835273824926 C 36.64413054067219 8.846323846485555 36.729469069654165 9.165912031047867 36.8528007793473 9.223426045709358 C 36.977301509985395 9.277975420439848 37.737165124208474 10.386750754635617 37.737165124208474 10.386750754635617 L 37.737165124208474 10.38141440275981 L 37.745348270823186 10.528460543337646 C 37.745348270823186 10.528460543337646 37.551875304432535 11.496119016817595 37.66819288845591 11.622412677878394 C 37.75411592791037 11.713723587753341 37.87569410618607 11.890416127641226 37.93472966390648 11.977576541612766 C 37.752362396492934 12.108613626563173 37.636629322942035 12.274633462699438 37.63662932294204 12.457848210435532 C 37.636629322942035 12.705099180681328 37.84354603019971 12.923889607589476 38.16035070628348 13.064413540319102 L 37.43205065757429 14.410952996981457 L 36 15.898609314359636 C 36.80311738918656 15.450355756791721 37.931222601071596 15.00921733505821 39.186166585484656 15.085705045278136 Z" style="stroke:none;fill:#FFFFFF;stroke-miterlimit:10;fill-rule:evenodd;"/></g><g shape="[GCompoundPath]"><path d="M 24.96050562358068 37.47360390601159 C 25.022972031463446 37.11473909063167 25.5750560935131 36.82667073542874 26.19912525417052 36.82667073542874 C 26.822599496657627 36.82667073542875 27.278306815116714 37.11473909063168 27.216435325404255 37.47360390601159 L 26.830928351041997 39.71833994507172 C 26.768461943159224 40.0778150747635 26.213998208428322 40.36405248703082 25.59111888411153 40.36405248703082 C 24.96883447796505 40.36405248703082 24.513127159505963 40.0778150747635 24.574403731048108 39.71833994507172 L 24.96050562358068 37.47360390601159 Z M 23.099601586844354 47.00000000000001 C 24.334651708412327 46.4848947207812 25.76840449886454 45.945376869087575 27.36040552261979 45.45224290509612 C 27.331849450444803 44.546536466280145 27.275332224265153 41.42050656087885 27.75007692417423 37.909978638999085 C 28.037422400434984 35.81293866341166 28.681718778883013 33.87335978028685 29 33 C 27.612055908661816 33.88434543790052 26.33238692432044 34.90296002441257 25.17467616489304 36.03326212999695 C 24.385219752888855 37.086664632285625 23.651685648894006 38.453158376563934 23.388136899445733 40.107110161733296 C 22.781320365727368 43.93133963991455 23.056172560411568 46.6283185840708 23.099601586844354 47.00000000000001 Z" style="stroke:none;fill:#FFFFFF;stroke-miterlimit:10;fill-rule:evenodd;"/></g><path d="M 41.4177438140962 46.51845662817706 C 51.94466066304935 46.94376953027087 59.026277662566415 51.35090152565881 59.99999999999999 51.992179536453726 C 59.98252890542882 51.4291061611216 59.93652168972472 50.87746269404943 59.871296269992335 50.324616078739375 L 59.649995738757426 50.66270073358622 L 59.53818073350189 50.585699246361315 L 59.84800147723077 50.097822635897266 L 59.705903241385194 49.73988603512525 C 59.83344223175479 49.79703557642498 59.651742848214546 49.70078371739385 59.570211073549046 49.64724362080778 L 59.163134570040626 50.34025700583193 L 58.91213317803472 50.182644586668445 L 59.315133092809866 49.48060758986013 C 59.20331808755434 49.409020269705735 59.07112013863242 49.326604615410325 58.91213317803472 49.23035275637919 L 58.51786881054517 49.94622595792324 L 58.261043720348866 49.79703557642498 L 58.65123149910514 49.07334191133466 C 58.524857248373635 48.999348294704475 58.386253231442296 48.91873736276591 58.239496037044404 48.83451698611366 L 57.85862617539274 49.57084370770182 L 57.59888923610124 49.430075363868795 L 57.97568250901963 48.686529752853296 C 57.84523166955485 48.614942432698896 57.70662765262351 48.53794094547399 57.562199937501774 48.46093945824908 L 57.192395102411865 49.21471182928663 L 56.92974631402517 49.077552930167265 L 57.29314508110565 48.31956954029711 C 57.15687054345047 48.24978694249954 57.01710178688106 48.1763948999883 56.87267407175932 48.103002857477065 L 56.51801085196443 48.87121300736929 L 56.25186784466351 48.7418745717962 L 56.600707366268004 47.96764868071453 C 56.46268571915571 47.899069231154854 56.32291696258629 47.831091355714115 56.1761597681884 47.76070718379761 L 55.83430868441238 48.54275353842555 L 55.56467145819721 48.41943084404191 L 55.90361069287803 47.63136874822452 C 55.76384193630863 47.564594021021676 55.61999659100594 47.500225590294605 55.47556887588421 47.43345086309176 L 55.14303570921281 48.23053657069332 L 54.87456322263573 48.11202646926124 L 55.199525581659614 47.30952659458917 C 55.059756825090204 47.247564460337884 54.91299963069231 47.184399177848704 54.76507769665635 47.12063232124058 L 54.448268515099 47.9321558076968 L 54.17630180960768 47.82026302157311 L 54.48845203261271 47.00332536804639 C 54.345771426948104 46.94376953027087 54.19843186273118 46.88301054425747 54.05167466833329 46.82345470648196 L 53.74709525297577 47.64761124943603 L 53.47221669838925 47.540531056263895 L 53.770972415556386 46.71216349447721 C 53.625379960796565 46.65561552729642 53.48211698531292 46.5984659859967 53.33244794181984 46.54131644469696 L 53.04068066248118 47.378106044148865 L 52.765219738075615 47.27764316628512 L 53.049998579585804 46.43604097388165 C 52.90207664554985 46.37949300670087 52.75531945115196 46.32775763247163 52.60565040765887 46.27120966529085 L 52.32960711343428 47.12063232124058 L 52.04890486065737 47.02618518456629 L 52.31970682651062 46.17255150978393 C 52.17353200193177 46.12141770967365 52.028521916991 46.06968233544441 51.87594102440272 46.018548535334126 L 51.612709866196994 46.87940109954381 L 51.332007613420075 46.78796183346422 L 51.5905798130735 45.92289825042194 C 51.441493139399455 45.875975469144265 51.29473594500156 45.82664639139081 51.140990312775216 45.779122035994185 L 50.892900769864504 46.65140450846381 L 50.608121928354315 46.565379409454735 L 50.85271725235079 45.690089066390385 C 50.70363057867674 45.644369433350604 50.555126274821745 45.597446652072925 50.40079827277634 45.55413331550892 L 50.16610323570353 46.437244122119544 L 49.88365387346951 46.35843791253781 L 50.112525212351926 45.47171766121351 C 49.962856168858835 45.4284043246495 49.81202238572768 45.385090988085494 49.65885912332036 45.34358237387832 L 49.438140961904494 46.23872466286784 L 49.15277975057528 46.16412947211871 L 49.36650947416267 45.267182460772354 C 49.216840430669585 45.22747856892202 49.06542427771939 45.18657152883378 48.90934916621687 45.14927393345921 L 48.7049373597341 46.05283826011396 L 48.418411408766794 45.98425881055428 L 48.61816425669726 45.077085039185874 C 48.467912843385136 45.04038901793025 48.31533195079686 45.00549771903146 48.15925683929435 44.968801697775845 L 47.9699866481066 45.88199121033371 L 47.682878327320246 45.81882592784452 L 47.86574245049857 44.899019099978275 C 47.7149086673674 44.86593252343633 47.557668816226816 44.83465066925121 47.40683503309566 44.80276724094714 L 47.23037697792677 45.72618351352706 L 46.94443339677851 45.67204184282204 L 47.11157353484276 44.74020353257691 C 46.958410272435444 44.710726400748634 46.80233516093293 44.68245241715823 46.64858952870657 44.652373711211 L 46.49134967756598 45.58541516969404 L 46.20191187750349 45.534281369583745 L 46.35041618135849 44.598232040506 C 46.19958239822733 44.57055963103454 46.04525439618193 44.54288722156309 45.88859691486038 44.51762110856742 L 45.74882815829097 45.457881456477786 L 45.45647850913327 45.412763397556944 L 45.58984119769325 44.4688936049329 C 45.43434845600978 44.44362749193724 45.28234993324054 44.417759804822616 45.125110082099944 44.39429841418377 L 45.002812420101705 45.34659024447304 L 44.71104514076305 45.30628477850375 L 44.826936734751854 44.35459452233344 C 44.674355842163585 44.33293785405144 44.517698360842026 44.31308590812626 44.36220561915856 44.29263238808215 L 44.25272009317918 45.247932088966124 L 43.962699923297635 45.216650234781014 L 44.061702792534305 44.255936366826525 C 43.907374790488916 44.23728756913924 43.75188204880544 44.22164664204669 43.592895088207726 44.20420099259729 L 43.505539615351836 45.16852430526544 L 43.20969574727991 45.13904717343716 L 43.295886480497714 44.171715990174285 C 43.13922899917616 44.15607506308172 42.98373625749269 44.14464515482178 42.82766114599018 44.132012098323955 L 42.75311780915315 45.1005464298247 L 42.461350529814496 45.077085039185874 L 42.52424647027074 44.106745985328274 C 42.37050083804438 44.09290978059255 42.21442572654187 44.08147987233261 42.056021135763196 44.07305783466738 L 42.00069600295447 45.04760790735758 L 41.70892872361581 45.030763832027134 L 41.75435356950088 44.05561218521798 C 41.5988608278174 44.0477917216717 41.443368086133916 44.03756496164964 41.28496349535524 44.02974449810337 L 41.24943893639386 45.011513460220904 L 40.95592454759809 45.00188827431781 L 40.984460668731 44.02011931220025 C 40.82663844777138 44.01470514512976 40.66823385699271 44.009290978059255 40.513323485128275 44.00688468158347 L 40.497017130195175 44.99166151429574 L 40.203502741399404 44.986247347225245 L 40.21049117922787 44.00026736627509 C 40.052668958268235 43.99966579215614 39.89717621658476 44.00026736627508 39.7405187352632 44.00026736627508 L 39.74517769381552 44.98504419898735 L 39.45166330501976 44.988653643701014 L 39.43826879918185 44.002673662750865 C 39.28335842731741 44.004478385107696 39.126118576176815 44.004478385107696 38.9671316155791 44.00688468158348 L 38.99333825743587 45.00008355196096 L 38.70098860827819 45.0073024413883 L 38.666046419135824 44.02011931220026 C 38.50997130763331 44.02433033103287 38.35214908667368 44.02974449810337 38.194326865714054 44.03636181341176 L 38.24091645123718 45.02715438731347 L 37.94681969262238 45.04339688852497 L 37.89557114854692 44.04959644402854 C 37.73774892758729 44.05741690757482 37.58109144626574 44.07004996407266 37.42385159512515 44.080878298213655 L 37.48732990540042 45.071069297996424 L 37.19498025624272 45.091522818040545 L 37.12393113831994 44.10253496649566 C 36.966691287179344 44.11336330063667 36.8100338058578 44.12539478301556 36.65454106417432 44.13983256187022 L 36.73723757847789 45.13002356165299 L 36.44547029913923 45.157094397005494 L 36.355202977188156 44.169911267817454 C 36.198545495866604 44.18374747255317 36.038976165449846 44.19698210316996 35.88464816340446 44.213224604381466 L 35.987727621374404 45.2070250488779 L 35.69421323257862 45.239510051300904 L 35.58705718587541 44.25052219975603 C 35.429817334734814 44.26856942332436 35.27432459305134 44.28781979513059 35.118249481548816 44.308874889293655 L 35.23938240390899 45.29665959260064 L 34.948197494389376 45.33636348445098 L 34.81891139456266 44.34677405878716 C 34.66225391324111 44.367829152950215 34.508508281014755 44.39249369182694 34.353015539331274 44.41595508246578 L 34.492784295900684 45.40073191517804 L 34.20101701656204 45.44584997409889 L 34.05484219198319 44.45986999314874 C 33.89934945029972 44.483932957906525 33.74443907843528 44.511605367377975 33.59011107638988 44.53807462861153 L 33.74735092753047 45.521648313085905 L 33.45849549728702 45.57218053907725 L 33.29368483849891 44.58860685460289 C 33.13877446663447 44.61808398643117 32.983281724951 44.64335009942683 32.82837135308657 44.67342880537406 L 33.004247038436404 45.65640091572949 L 32.71539160819296 45.71114416055345 L 32.533109854833675 44.7305783466738 C 32.37878185278827 44.76246177497786 32.22503622056192 44.79314205504403 32.07245532797364 44.824423909229154 L 32.263472628618516 45.80378657487091 L 31.974034828556015 45.865147135003255 L 31.777776199539787 44.887589191718334 C 31.623448197494398 44.921878916498166 31.470867304906122 44.95556706715907 31.315956933041683 44.99166151429574 L 31.52619243771484 45.963805290510166 L 31.23908411692851 46.032384740069844 L 31.02244254424591 45.05663151914175 C 30.86694980256243 45.09272596627843 30.718445498707432 45.13182828400982 30.565864606119156 45.17093060174122 L 30.78949461663022 46.14126965559882 L 30.503551035481962 46.21105225339639 L 30.27235021732338 45.24432264425246 C 30.11860458509702 45.283424961983854 29.967188432146823 45.3219257055963 29.817519388653736 45.36343431980349 L 30.060949973012132 46.32896078070952 L 29.773841652225794 46.40596226793443 L 29.525169739496043 45.44224052938522 C 29.373171216726806 45.48495229183029 29.221755063776605 45.52706248015641 29.069756541007358 45.56917266848252 L 29.328911110479822 46.53048811055596 L 29.043549899150598 46.610497468375584 L 28.782648220221024 45.653994619253716 C 28.63181443708986 45.69851110405561 28.479233544501586 45.743027588857515 28.32898213118946 45.78814564777835 L 28.60327831595694 46.74404692278128 L 28.319664214084835 46.83247831826613 L 28.04187381040312 45.877780191501095 C 27.891040027271956 45.92530454689771 27.740788613959836 45.97102417993751 27.591701940285795 46.018548535334126 L 27.879975000710214 46.97144193974233 L 27.59985511775234 47.06227963170295 L 27.30517598931849 46.1154019684842 C 27.155506945825408 46.1641294721187 27.004090792875203 46.21406012399111 26.85908070793444 46.26579549822034 L 27.161330644015802 47.21086843908227 L 26.88179313087697 47.30832344635128 L 26.57139001732906 46.36445365372725 C 26.42405045311213 46.41979847267015 26.274963779438085 46.46912755042361 26.129371324678278 46.52387079524756 L 26.4473452458737 47.4623264208011 L 26.16955484219199 47.56399244690272 L 25.845174852987135 46.628544691943915 C 25.697252918951172 46.685092659124706 25.54641913582001 46.736828033353945 25.403738530155398 46.793977574653674 L 25.73452458736968 47.727019033136706 L 25.45964603278316 47.832294503952006 L 25.12128916792137 46.90466721253948 C 24.973367233885405 46.960613605601324 24.8248629300304 47.01776314690106 24.681017584727712 47.07671741055762 L 25.02927473651317 48.003743127851216 L 24.754978551745694 48.11383119161807 L 24.402062441407917 47.19041491903815 C 24.25414050737195 47.2517754791705 24.105636203516944 47.311932891064956 23.964120337490414 47.37088715472152 L 24.328683844208978 48.29009240846884 L 24.054970029260538 48.40679778754408 L 23.688659413084856 47.489998830272555 C 23.541319848867932 47.55496883511856 23.39398028465101 47.61693096936986 23.251882048805438 47.678893103621135 L 23.631004800999975 48.59087946794111 L 23.35903809550866 48.712397439967916 L 22.97583875458084 47.80341894624267 C 22.829663930001992 47.87019367344552 22.68640095451834 47.934562104172585 22.546632197948924 47.9995321090186 L 22.939731825800408 48.90369800979229 L 22.670094599585248 49.030028574770654 L 22.27233601318145 48.12586267399696 C 22.123831709326446 48.19684842003241 21.98231584329991 48.26302157311632 21.844876566006654 48.33220259679494 L 22.25428254879123 49.227344885784476 L 21.986392432033185 49.35969119195228 L 21.57290986051533 48.46454890296275 C 21.426152666117446 48.536136223117154 21.284636800090908 48.60892669150945 21.148362262435732 48.678107715188084 L 21.57465696997245 49.56663268886921 L 21.309096332490558 49.70078371739385 L 20.8793074060396 48.81526661430743 C 20.730803102184595 48.89106495329445 20.589869605977107 48.96866801463831 20.45941876651232 49.037849038316935 L 20.899690349705978 49.91735040021389 L 20.637041561319283 50.05811874404692 L 20.190363910116194 49.18342997510151 C 20.036618277889836 49.26765035175376 19.89917900059658 49.3452534130976 19.773387119684102 49.41503601089518 L 20.235206386182213 50.28310746453219 L 19.97896366580495 50.42989154955467 L 19.51073833129741 49.5678358371071 C 19.34534530269027 49.66408769613823 19.225377119968183 49.736878164530516 19.165975398426184 49.77537890814298 C 19.162481179511946 49.81688752235015 19.160151700235794 49.86441187774677 19.1543280020454 49.90772521431079 L 19.58877588704867 50.66270073358623 L 19.47230192324082 50.73368647962168 L 19.12986846964575 50.164597363100114 C 19.06464304991335 50.768577778520466 19.01572398511406 51.382784953962876 19 52 C 20.079713644498742 51.374964490416595 29.65562057896083 46.040205203616125 41.4177438140962 46.51845662817706 Z" style="stroke:none;fill:#FFFFFF;stroke-miterlimit:10;"/><path d="M 16 63 L 19.681227863046043 63 C 25.277449822904366 61.12166512308984 33.54545454545455 59.097942567940656 42.60802833530106 59.404735211004365 C 50.272727272727266 59.667172291215486 57.05608028335301 61.38779850020535 61.844155844155836 63 L 63.887839433293976 63 C 63.887839433293976 63 63.93447461629279 62.781302433157386 64 62.41413694065543 C 59.260920897284535 60.63436998119547 51.529515938606835 58.33650540563794 42.59445100354191 58.031560911026425 C 31.212514757969302 57.64160158761412 21.09090909090909 60.955331762392646 16 63 Z" style="stroke:none;fill:#FFFFFF;stroke-miterlimit:10;"/><path d="M 21 63 L 26.284940153635446 63 C 31.101232656464006 61.9606159436474 36.809563508604775 61.20350551227456 42.86923122729708 61.39492588548958 C 47.55570773536593 61.54063393077265 51.91883522896445 62.18346354231563 55.709700470434115 63 L 61 63 C 56.2891085571369 61.6212019087527 49.94539391413089 60.2526890912901 42.84600726493182 60.02869868442356 C 34.354969332459945 59.76413858651742 26.563032215804206 61.373783933821045 21 63 Z" style="stroke:none;fill:#FFFFFF;stroke-miterlimit:10;"/><path d="M 60 52 L 60 52 C 60 52 59.99999999999999 52 60 52 Z" style="stroke:none;fill:#FFFFFF;stroke-miterlimit:10;"/><g shape="[GCompoundPath]"><path d="M 56.9355296025832 59.40020519375135 L 56.61878395863316 56.4922929547204 C 56.55870145158554 55.815156392771605 57.095944063147215 55.27191355866461 57.81168421991831 55.2719135586646 C 58.53209097917855 55.27191355866461 59.160915664589496 55.815156392771605 59.219248195703685 56.49229295472039 L 59.53716049027601 60.150481941833974 L 56.9355296025832 59.40020519375135 Z M 50.97744487457998 58.033545425427874 L 50.734781545144955 54.13765083337931 C 50.69044882149818 53.280023166938946 51.403855677024694 52.58991012035351 52.326092993940016 52.58991012035351 C 53.24891363616648 52.58991012035351 54.03523615558574 53.280023166938946 54.07956887923253 54.13765083337931 L 54.32281553397869 58.785001853932016 L 50.97744487457998 58.033545425427874 Z M 44.46870105285882 57.14524606802816 L 44.29195348358282 52.78868627137854 C 44.25870394084774 51.84671145479996 45.06252621960126 51.08640742313446 46.08917876721097 51.08640742313446 C 47.116414640131836 51.08640742313446 47.97506949813268 51.84671145479996 48.007152390245494 52.78868627137854 L 48.18273330889921 57.52038444206947 L 44.46870105285882 57.14524606802816 Z M 41.601073823285304 57.145246068028165 L 37.51371336811411 57.145246068028165 L 37.51371336811411 51.850840336275255 C 37.51371336811411 50.80387396218195 38.427200805362304 49.957453259745975 39.55418530648842 49.957453259745975 C 40.68583641010369 49.957453259745975 41.60107382328531 50.80387396218197 41.60107382328531 51.85084033627526 L 41.601073823285304 57.145246068028165 Z M 34.33225712114626 57.26557347102255 L 30.617058214483592 57.897882176953814 L 30.705723661777157 52.78868627137854 C 30.721473445177992 51.84671145479996 31.565545170400306 51.08640742313445 32.59161439269887 51.08640742313445 C 33.61710028968632 51.08640742313445 34.43900565308523 51.84671145479996 34.42033924312869 52.78868627137854 L 34.33225712114626 57.26557347102255 Z M 27.81826337162482 58.40750411904769 L 24.47522601347067 59.16073006818409 L 24.635640474034687 54.513379047631375 C 24.66597339021407 53.657520901823275 25.437129451543644 52.96504849439482 26.359366768458962 52.96504849439482 C 27.28452071192999 52.96504849439482 28.009010748368215 53.65752090182328 27.97926115749998 53.763692139759506 L 27.81826337162482 58.40750411904769 Z M 21.436101142421442 60.15048194183398 L 18.83330360410635 60.904297731181146 L 19.151215898678686 57.24256970280303 C 19.209548429792868 56.56661282127574 19.836623139270394 56.02160046653648 20.555863247908345 56.02160046653648 C 21.276270007168577 56.021600466536476 21.81117931748569 56.566612821275754 21.753430111682636 57.242569702803024 L 21.436101142421442 60.15048194183398 Z M 63.63968740353689 56.10771713730696 C 62.774615967113476 53.23047658923538 60.105319343328205 52.62942941447421 60.096569463661076 52.62765989384194 C 60.096569463661076 52.65833158480129 60.096569463661076 52.68841343554989 60.09540281303879 52.62765989384194 C 60.02365379976834 52.57811331613837 52.6574217706686 47.468917410563094 41.455242495499824 47.02712709270627 C 29.111495586426376 46.548176841571745 19.099883271298197 52.569265712977014 19.002467944337496 52.62765989384194 C 19.002467944337496 52.62765989384194 17.06524458603529 53.22634770776008 15.579515018556917 56.23217342177665 C 14.314282418690166 58.796208817936396 15.461099980395108 62.082798472273204 15.82801160110336 63 C 20.805526481077067 61.04055081986596 31.011386124815502 57.73803547983872 42.51222795928893 58.11376369409079 C 51.34727312184394 58.406324438626164 58.997584577469766 60.59994018243066 63.714353043363054 62.311656474046835 C 63.94534986657524 60.89427044759828 64.25451228148043 58.1532829882115 63.63968740353689 56.10771713730696 Z" style="stroke:none;fill:#FFFFFF;stroke-miterlimit:10;fill-rule:evenodd;"/></g><path d="M 20 44 C 19.523964256701866 45.5873912552254 19.184809098294068 47.26008360637216 19 49 C 19.12835093419984 48.89662185063835 19.32006498781478 48.74861597559598 19.560113728675873 48.57123488871314 C 19.578797725426483 48.37803638007004 19.670186839967506 47.453282115015256 20 44 Z" style="stroke:none;fill:#FFFFFF;stroke-miterlimit:10;"/><path d="M 32 63 L 49 63 C 46.89552992069214 62.520429949179686 44.688103821196826 62.17998791310284 42.40529920692141 62.052453899588 C 38.77426099495314 61.85008587814294 35.268240807498195 62.2474439202512 32 63 Z" style="stroke:none;fill:#FFFFFF;stroke-miterlimit:10;"/><path d="M 22.924876673713882 46.57230853093486 C 22.922057787174065 46.54472608340147 22.571388301620857 43.65756336876533 23.19661733615222 39.57116380485146 C 23.343763213530657 38.61896974652494 23.63523608174771 37.759716544017444 24 37 C 23.312755461592673 37.81548105750886 22.681888653981673 38.6831289179613 22.114728682170544 39.589751976015265 L 21.837914023960536 41.257890433360586 C 21.791120507399576 41.54390842191333 21.3784355179704 41.77656037067321 20.902043692741366 41.79694739711093 C 20.77801268498943 42.05358408285636 20.838900634249473 41.93306077950395 20.724453840732913 42.18969746524939 C 20.296546863988727 45.64649768329245 20.072163495419307 47.45374761515399 20 48 L 22.924876673713882 46.57230853093486 Z" style="stroke:none;fill:#FFFFFF;stroke-miterlimit:10;"/></svg>