<svg xmlns="http://www.w3.org/2000/svg" width="180" height="180" viewBox="0 0 180 180"><radialGradient id="a" cx="442.299" cy="-620.641" r="152.827" gradientTransform="matrix(.589 0 0 .589 -170.47 455.495)" gradientUnits="userSpaceOnUse"><stop offset=".658" stop-color="#EDD095"/><stop offset="1" stop-color="#DEAC1A"/></radialGradient><path fill="url(#a)" d="M180 90.005c0 49.701-40.289 89.995-90 89.995-49.706 0-90-40.294-90-89.995 0-49.707 40.294-90.005 90-90.005 49.711 0 90 40.298 90 90.005z"/><g fill="#fff"><path d="M107.037 87.183h-8.677l-8.199 10.401-8.203-10.401h-8.663c-4.519 0-8.222 3.694-8.222 8.218v17.508c6.211 6.656 15.033 10.837 24.858 10.837 10.069 0 19.087-4.396 25.322-11.349v-16.997c.001-4.524-3.697-8.217-8.216-8.217zM89.937 56.053c-7.43 0-13.434 6.019-13.434 13.448 0 7.416 6.004 13.425 13.434 13.425 7.425 0 13.439-6.01 13.439-13.425 0-7.429-6.015-13.448-13.439-13.448zM133.957 102.497c-5.55 19.087-23.17 33.089-44.025 33.089-16.631 0-31.172-8.92-39.22-22.195l6.389-6.389c2.466-2.466 1.646-4.486-1.814-4.505h-25.763v25.701c0 3.507 2.029 4.346 4.514 1.87l6.244-6.248c10.884 15.787 29.067 26.166 49.65 26.166 28.847 0 52.997-20.377 58.884-47.489h-14.859zM45.897 76.922c5.55-19.097 23.17-33.103 44.035-33.103 16.664 0 31.233 8.958 39.272 22.284l-6.31 6.31c-2.475 2.479-1.636 4.504 1.87 4.504h25.711v-25.706c0-3.506-2.034-4.345-4.514-1.866l-6.319 6.324c-10.879-15.834-29.095-26.25-49.71-26.25-28.852 0-53.011 20.386-58.889 47.503h14.854z"/></g></svg>