<svg xmlns="http://www.w3.org/2000/svg" width="180" height="180" viewBox="0 0 180 180"><radialGradient id="a" cx="369.685" cy="-702.852" r="152.827" gradientTransform="matrix(.589 0 0 .589 -127.708 503.91)" gradientUnits="userSpaceOnUse"><stop offset=".658" stop-color="#A67C52"/><stop offset="1" stop-color="#754C24"/></radialGradient><path fill="url(#a)" d="M180 90.005c0 49.701-40.287 89.995-89.998 89.995-49.708 0-90.002-40.294-90.002-89.995 0-49.707 40.294-90.005 90.002-90.005 49.711 0 89.998 40.298 89.998 90.005z"/><g fill="#fff"><path d="M90.019 119.26c-5.407 0-9.797 4.385-9.797 9.792 0 1.192.225 2.322.605 3.37.654 1.77 1.797 3.293 3.265 4.416 1.641 1.251 3.696 2.011 5.927 2.011 2.178 0 4.193-.733 5.822-1.938 1.552-1.148 2.744-2.744 3.4-4.604.361-1.015.569-2.111.569-3.255.001-5.407-4.386-9.792-9.791-9.792zM90.019 94.021c-11.201 0-21.183 5.288-27.598 13.493l7.584 10.259c3.947-6.975 11.435-11.705 20.013-11.705 8.555 0 16.031 4.716 19.99 11.672l7.577-10.258c-6.411-8.191-16.384-13.461-27.566-13.461zM46.195 85.552l7.263 9.834c9.091-9.865 22.116-16.062 36.56-16.062 14.426 0 27.434 6.188 36.521 16.038l7.272-9.834c-11.196-11.269-26.688-18.258-43.793-18.258-17.118.001-32.626 7.006-43.823 18.282zM90.019 41.154c-22.915 0-43.812 8.817-59.47 23.234l7.212 9.752c13.61-12.958 32.018-20.932 52.258-20.932 20.218 0 38.618 7.959 52.23 20.906l7.202-9.752c-15.656-14.4-36.539-23.208-59.432-23.208z"/></g></svg>