<svg xmlns="http://www.w3.org/2000/svg" width="180" height="180" viewBox="0 0 180 180"><radialGradient id="a" cx="325.812" cy="385.784" r="25.807" gradientTransform="matrix(3.487 0 0 3.487 -1046.273 -1255.348)" gradientUnits="userSpaceOnUse"><stop offset=".658" stop-color="#808080"/><stop offset="1" stop-color="#666"/></radialGradient><path fill="url(#a)" d="M180 90.014c0 49.692-40.294 89.986-89.991 89.986-49.715 0-90.009-40.294-90.009-89.986 0-49.711 40.294-90.014 90.009-90.014 49.697 0 89.991 40.303 89.991 90.014z"/><path fill-rule="evenodd" clip-rule="evenodd" fill="#fff" d="M53.479 96.939l5.288-7.23s.952-1.554 2.313-2.782h-1.453v-27.309h27.305v27.309h-18.535l9.099 6.145h9.436v.598l6.138-7.823v-26.229h20.585l4.444-5.658c.166-.178.323-.335.478-.473h-25.507v-18.267h-6.138v18.267h-27.305v-18.267h-6.148v18.267h-18.259v6.131h18.26v27.309h-18.26v6.145h18.26v3.867h-.001zm84.484-43.452l-4.418 6.131-1.819 2.52-3.356-2.52-5.73-4.282c-.084-.063-.199-.117-.305-.155l-.114-.016-.229-.038-.033-.007-.049.012c-.141.012-.284.033-.437.075l-.124.038c-.176.065-.35.136-.516.249l-.037.021c-.162.108-.324.225-.479.366l-.124.112c-.167.157-.328.328-.474.522l-2.318 3.104h.122l-1.741 2.482-.028.059-17.523 24.767-4.343 6.145-.818 1.156-6.138 8.69-1.873 2.642-16.441-12.488-3.335-2.54c-.225-.155-.478-.279-.743-.354l-.258-.038c-.167-.028-.324-.07-.474-.07l-.054.012c-.188 0-.382.042-.577.091l-.267.054c-.286.096-.556.229-.797.408-.249.167-.485.37-.668.63l-1.301 1.807-.518.723-6.148 8.559-12.93 18.023-4.411 6.144-.918 1.274v3.289l.042 13.696h2.986c4.036-5.93 8.393-12.337 12.417-18.26 3.347-4.913 6.457-9.495 8.962-13.177 3.542-5.208 5.85-8.618 5.85-8.618l19.765 15.059c.136.097.286.162.443.211l.16.026c.115.021.232.044.352.044l.312-.028.22-.025.204-.065.361-.108c.469-.117.909-.36 1.28-.727.136-.107 1.868-2.479 4.498-6.133 3.658-5.056 9.019-12.567 14.257-19.906 1.486-2.081 2.96-4.148 4.381-6.145l8.672-12.18c2.093-2.925 3.384-4.76 3.384-4.76l2.762 2.114 5.453 4.174c.199.146.41.22.626.324l.122.103c.107.07.223.117.345.15l.129.021c.103.012.199.033.318.021.171.028.323.033.474.033.225 0 .436-.042.623-.108l.12-.047c.176-.087.333-.195.445-.352l9.598-13.573v-18.829l-6.817 9.468zm-12.887 0l1.411.989v-3.066h.038v-16.19h-6.146v17.163c1.782-.549 3.381.419 4.697 1.104zm1.449 23.02l-1.906-1.77c-1.474 2.082-2.883 4.066-4.239 5.988v6.202h-4.374c-1.523 2.17-2.953 4.224-4.289 6.145h8.663v27.305h-27.045c-.722 1.123-1.142 1.737-1.411 2.044l.028.017c-.893.902-2.001 1.561-3.206 1.92-.855.302-1.706.452-2.545.452-1.35 0-2.625-.398-3.691-1.151l-.07-.049-.07-.054-4.169-3.179h-17.54c-2.168 3.277-4.627 6.966-7.182 10.808v13.596h6.148v-18.26h27.305v18.26h6.138v-18.26h27.31v18.26h6.146v-18.26h18.253v-6.144h-18.253v-27.305h18.253v-6.145h-18.253v-10.42h-.001z"/></svg>